<svg viewBox="0 0 319 283" fill="none" xmlns="http://www.w3.org/2000/svg">
<g clip-path="url(#clip0_10928_84910)">
<g filter="url(#filter0_d_10928_84910)">
<mask id="path-1-inside-1_10928_84910" fill="white">
<path d="M13 9.99999C13 7.79085 14.7909 6 17 6H304C306.209 6 308 7.79086 308 10V382C308 384.209 306.209 386 304 386H17C14.7909 386 13 384.209 13 382V9.99999Z"/>
</mask>
<path d="M13 9.99999C13 7.79085 14.7909 6 17 6H304C306.209 6 308 7.79086 308 10V382C308 384.209 306.209 386 304 386H17C14.7909 386 13 384.209 13 382V9.99999Z" fill="white"/>
<path d="M17 7H304V5H17V7ZM307 10V382H309V10H307ZM304 385H17V387H304V385ZM14 382V9.99999H12V382H14ZM17 385C15.3431 385 14 383.657 14 382H12C12 384.761 14.2386 387 17 387V385ZM307 382C307 383.657 305.657 385 304 385V387C306.761 387 309 384.761 309 382H307ZM304 7C305.657 7 307 8.34315 307 10H309C309 7.23858 306.761 5 304 5V7ZM17 5C14.2386 5 12 7.23857 12 9.99999H14C14 8.34314 15.3431 7 17 7V5Z" fill="#DDDDDD" mask="url(#path-1-inside-1_10928_84910)"/>
<path d="M34.76 47.5V44.924H29.624V42.94L34.68 35.82H36.92V42.94H38.632V44.924H36.92V47.5H34.76ZM32.024 42.94H34.76V39.084L32.024 42.94ZM46.0724 47.5L43.2724 38.86H45.5124L47.2564 44.492L49.3044 38.86H51.2724L53.2884 44.524L55.0964 38.86H57.3364L54.4084 47.5H52.3284L50.2644 41.868L48.1844 47.5H46.0724ZM62.3086 47.676C59.5246 47.676 57.7326 45.708 57.7326 43.196C57.7326 40.684 59.6846 38.684 62.2606 38.684C64.8526 38.684 66.7246 40.556 66.7246 43.116V43.948H59.8606C60.1486 45.068 61.0606 45.772 62.3406 45.772C63.3646 45.772 64.0526 45.324 64.4846 44.62L66.2926 45.676C65.4286 46.892 64.2126 47.676 62.3086 47.676ZM62.2606 40.556C61.1406 40.556 60.2766 41.212 59.9246 42.22H64.5326C64.2446 41.148 63.4126 40.556 62.2606 40.556ZM72.4805 47.676C69.6965 47.676 67.9045 45.708 67.9045 43.196C67.9045 40.684 69.8565 38.684 72.4325 38.684C75.0245 38.684 76.8965 40.556 76.8965 43.116V43.948H70.0325C70.3205 45.068 71.2325 45.772 72.5125 45.772C73.5365 45.772 74.2245 45.324 74.6565 44.62L76.4645 45.676C75.6005 46.892 74.3845 47.676 72.4805 47.676ZM72.4325 40.556C71.3125 40.556 70.4485 41.212 70.0965 42.22H74.7045C74.4165 41.148 73.5845 40.556 72.4325 40.556ZM84.3164 47.5L81.8684 43.932L80.5404 45.42V47.5H78.3484V34.892H80.5404V42.876L84.0444 38.86H86.6844L83.4364 42.54L86.8444 47.5H84.3164ZM91.1165 47.676C89.0685 47.676 87.7725 46.908 87.0845 45.532L89.2125 44.7C89.5965 45.468 90.2845 45.868 91.1965 45.868C92.0925 45.868 92.5725 45.436 92.5725 44.924C92.5725 44.3 91.6445 44.156 90.5405 43.932C89.0845 43.628 87.4685 43.18 87.4685 41.356C87.4685 39.9 88.8765 38.636 91.0045 38.652C92.8285 38.652 93.9165 39.34 94.7165 40.492L92.7005 41.308C92.3485 40.732 91.8045 40.396 91.0045 40.396C90.1405 40.396 89.7245 40.748 89.7245 41.228C89.7245 41.772 90.4285 41.916 91.6925 42.188C93.1325 42.476 94.8285 42.972 94.8285 44.828C94.8285 46.172 93.6285 47.692 91.1165 47.676ZM104.87 47.676C103.702 47.676 102.726 47.244 102.15 46.444V50.956H99.9578V38.86H102.134V40.06C102.71 39.212 103.686 38.684 104.854 38.684C107.03 38.684 109.014 40.428 109.014 43.18C109.014 45.932 106.998 47.676 104.87 47.676ZM104.422 45.596C105.75 45.596 106.806 44.524 106.806 43.164C106.806 41.804 105.75 40.732 104.422 40.732C103.062 40.732 102.022 41.82 102.022 43.164C102.022 44.508 103.062 45.596 104.422 45.596ZM114.761 47.676C112.169 47.676 110.201 45.66 110.201 43.18C110.201 40.684 112.169 38.684 114.761 38.684C117.337 38.684 119.337 40.684 119.337 43.18C119.337 45.66 117.369 47.676 114.761 47.676ZM114.777 45.58C116.089 45.58 117.145 44.508 117.145 43.164C117.145 41.82 116.089 40.748 114.777 40.748C113.449 40.748 112.409 41.82 112.409 43.164C112.409 44.508 113.449 45.58 114.777 45.58ZM124.132 47.676C122.084 47.676 120.788 46.908 120.1 45.532L122.228 44.7C122.612 45.468 123.3 45.868 124.212 45.868C125.108 45.868 125.588 45.436 125.588 44.924C125.588 44.3 124.66 44.156 123.556 43.932C122.1 43.628 120.484 43.18 120.484 41.356C120.484 39.9 121.892 38.636 124.02 38.652C125.844 38.652 126.932 39.34 127.732 40.492L125.716 41.308C125.364 40.732 124.82 40.396 124.02 40.396C123.156 40.396 122.74 40.748 122.74 41.228C122.74 41.772 123.444 41.916 124.708 42.188C126.148 42.476 127.844 42.972 127.844 44.828C127.844 46.172 126.644 47.692 124.132 47.676ZM128.493 40.812V38.86H130.093V36.988L132.269 35.708V38.86H134.541V40.812H132.269V44.364C132.269 45.276 132.653 45.596 133.213 45.596C133.517 45.596 133.757 45.5 134.013 45.276L135.021 47.004C134.461 47.42 133.757 47.66 132.957 47.66C131.149 47.66 130.093 46.796 130.093 44.444V40.812H128.493ZM140.917 47.676C139.749 47.676 138.773 47.244 138.197 46.444V50.956H136.005V38.86H138.181V40.06C138.757 39.212 139.733 38.684 140.901 38.684C143.077 38.684 145.061 40.428 145.061 43.18C145.061 45.932 143.045 47.676 140.917 47.676ZM140.469 45.596C141.797 45.596 142.853 44.524 142.853 43.164C142.853 41.804 141.797 40.732 140.469 40.732C139.109 40.732 138.069 41.82 138.069 43.164C138.069 44.508 139.109 45.596 140.469 45.596ZM149.099 47.676C147.211 47.676 146.091 46.62 146.091 45.1C146.091 43.308 147.579 42.204 149.979 42.204H152.251V42.092C152.251 41.164 151.627 40.524 150.379 40.524C149.403 40.524 148.747 40.94 148.347 41.66L146.315 40.652C147.195 39.5 148.459 38.684 150.395 38.684C152.939 38.684 154.395 40.012 154.395 42.188V47.5H152.267V46.172C151.643 47.068 150.459 47.676 149.099 47.676ZM149.739 45.852C150.795 45.852 151.835 45.212 152.267 44.284V43.82H150.235C148.923 43.82 148.395 44.236 148.395 44.908C148.395 45.532 148.827 45.852 149.739 45.852ZM156.098 47.5V38.86H158.274V40.188C158.69 39.164 159.554 38.7 160.658 38.7C161.234 38.7 161.746 38.844 162.114 39.036L161.314 41.212C161.074 41.036 160.658 40.908 160.162 40.908C159.026 40.908 158.29 41.484 158.29 42.94V47.5H156.098ZM162.962 40.812V38.86H164.562V36.988L166.738 35.708V38.86H169.01V40.812H166.738V44.364C166.738 45.276 167.122 45.596 167.682 45.596C167.986 45.596 168.226 45.5 168.482 45.276L169.49 47.004C168.93 47.42 168.226 47.66 167.426 47.66C165.618 47.66 164.562 46.796 164.562 44.444V40.812H162.962ZM173.771 47.676C171.643 47.676 170.411 46.316 170.411 44.044V38.86H172.667V43.74C172.667 44.956 173.243 45.708 174.427 45.708C175.467 45.708 176.235 44.956 176.235 43.612V38.86L178.475 38.844V47.484L176.267 47.5V46.412C175.707 47.196 174.827 47.676 173.771 47.676ZM180.239 47.5V38.86H182.447V39.884C182.975 39.132 183.807 38.684 184.847 38.684C186.143 38.684 187.023 39.212 187.487 40.14C188.031 39.244 189.007 38.684 190.191 38.684C192.383 38.684 193.487 40.028 193.487 42.188V47.5H191.215V42.508C191.215 41.34 190.735 40.62 189.615 40.62C188.623 40.62 187.967 41.292 187.967 42.652V47.5H185.711V42.444C185.711 41.292 185.231 40.62 184.159 40.62C183.119 40.62 182.463 41.308 182.463 42.7V47.5H180.239Z" fill="#364248"/>
<path fill-rule="evenodd" clip-rule="evenodd" d="M280 42L280 45L274 40L268 45L268 42L274 37L280 42Z" fill="#364248"/>
<path d="M33.732 72.67C35.216 72.67 36.196 71.872 36.196 69.072V68.596C36.196 65.81 35.216 65.096 33.76 65.096C32.276 65.096 31.296 65.88 31.296 68.596V69.072C31.296 71.9 32.248 72.67 33.732 72.67ZM33.746 74.14C31.38 74.14 29.784 72.782 29.784 69.072V68.596C29.784 65.054 31.478 63.64 33.746 63.64C36.07 63.64 37.722 65.096 37.722 68.596V69.072C37.722 72.824 36.056 74.14 33.746 74.14ZM42.8 74H41.274V66.034C40.924 66.762 40.182 67.238 39.202 67.238H39.034V65.726H39.104C40.644 65.726 41.302 64.886 41.33 63.78H42.8V74ZM44.3494 74L49.1934 63.78H50.8034L45.9594 74H44.3494ZM55.4738 74H53.9478V66.034C53.5978 66.762 52.8558 67.238 51.8758 67.238H51.7078V65.726H51.7778C53.3178 65.726 53.9758 64.886 54.0038 63.78H55.4738V74ZM61.3492 72.67C62.8332 72.67 63.8132 71.872 63.8132 69.072V68.596C63.8132 65.81 62.8332 65.096 61.3772 65.096C59.8932 65.096 58.9132 65.88 58.9132 68.596V69.072C58.9132 71.9 59.8652 72.67 61.3492 72.67ZM61.3632 74.14C58.9972 74.14 57.4012 72.782 57.4012 69.072V68.596C57.4012 65.054 59.0952 63.64 61.3632 63.64C63.6872 63.64 65.3392 65.096 65.3392 68.596V69.072C65.3392 72.824 63.6732 74.14 61.3632 74.14ZM66.5251 74L71.3691 63.78H72.9791L68.1351 74H66.5251ZM73.9956 74V72.544C73.9956 70.864 75.4096 69.814 76.7256 68.904C77.8456 68.106 78.8956 67.42 78.8956 66.482C78.8956 65.614 78.2656 64.97 77.1736 64.97C76.2216 64.97 75.5776 65.572 75.1716 66.44L73.8556 65.768C74.4576 64.494 75.6196 63.64 77.1736 63.64C79.1896 63.64 80.4496 64.914 80.4496 66.496C80.4496 68.092 79.0916 69.044 77.8036 69.926C76.6416 70.724 75.5356 71.466 75.5356 72.544H80.4636V74H73.9956ZM85.7945 72.67C87.2785 72.67 88.2585 71.872 88.2585 69.072V68.596C88.2585 65.81 87.2785 65.096 85.8225 65.096C84.3385 65.096 83.3585 65.88 83.3585 68.596V69.072C83.3585 71.9 84.3105 72.67 85.7945 72.67ZM85.8085 74.14C83.4425 74.14 81.8465 72.782 81.8465 69.072V68.596C81.8465 65.054 83.5405 63.64 85.8085 63.64C88.1325 63.64 89.7845 65.096 89.7845 68.596V69.072C89.7845 72.824 88.1185 74.14 85.8085 74.14ZM91.0034 74V72.544C91.0034 70.864 92.4174 69.814 93.7334 68.904C94.8534 68.106 95.9034 67.42 95.9034 66.482C95.9034 65.614 95.2734 64.97 94.1814 64.97C93.2294 64.97 92.5854 65.572 92.1794 66.44L90.8634 65.768C91.4654 64.494 92.6274 63.64 94.1814 63.64C96.1974 63.64 97.4574 64.914 97.4574 66.496C97.4574 68.092 96.0994 69.044 94.8114 69.926C93.6494 70.724 92.5434 71.466 92.5434 72.544H97.4714V74H91.0034ZM103.003 74V71.648H98.4252V70.248L102.947 63.78H104.501V70.262H105.999V71.648H104.501V74H103.003ZM100.077 70.262H103.003V66.09L100.077 70.262Z" fill="#586F78"/>
<path d="M32.224 105V97.2H29.585V95.51H36.644V97.2H34.031V105H32.224ZM37.8651 105V94.756H39.6461V98.838C40.1141 98.214 40.8291 97.837 41.6871 97.837C43.3511 97.837 44.4171 98.929 44.4171 100.762V105H42.5711V101.035C42.5711 100.034 42.0901 99.41 41.1411 99.41C40.2961 99.41 39.6461 100.034 39.6461 101.126V105H37.8651ZM45.7997 105V97.98H47.6327V105H45.7997ZM45.5657 96.004C45.5657 95.328 46.0467 94.834 46.7097 94.834C47.3987 94.834 47.8667 95.328 47.8667 96.004C47.8667 96.667 47.3987 97.148 46.7097 97.148C46.0337 97.148 45.5657 96.667 45.5657 96.004ZM51.832 105.143C50.168 105.143 49.115 104.519 48.556 103.401L50.285 102.725C50.597 103.349 51.156 103.674 51.897 103.674C52.625 103.674 53.015 103.323 53.015 102.907C53.015 102.4 52.261 102.283 51.364 102.101C50.181 101.854 48.868 101.49 48.868 100.008C48.868 98.825 50.012 97.798 51.741 97.811C53.223 97.811 54.107 98.37 54.757 99.306L53.119 99.969C52.833 99.501 52.391 99.228 51.741 99.228C51.039 99.228 50.701 99.514 50.701 99.904C50.701 100.346 51.273 100.463 52.3 100.684C53.47 100.918 54.848 101.321 54.848 102.829C54.848 103.921 53.873 105.156 51.832 105.143ZM59.0155 105V97.98H60.8095V98.812C61.2385 98.201 61.9145 97.837 62.7595 97.837C63.8125 97.837 64.5275 98.266 64.9045 99.02C65.3465 98.292 66.1395 97.837 67.1015 97.837C68.8825 97.837 69.7795 98.929 69.7795 100.684V105H67.9335V100.944C67.9335 99.995 67.5435 99.41 66.6335 99.41C65.8275 99.41 65.2945 99.956 65.2945 101.061V105H63.4615V100.892C63.4615 99.956 63.0715 99.41 62.2005 99.41C61.3555 99.41 60.8225 99.969 60.8225 101.1V105H59.0155ZM71.1522 105V97.98H72.9852V105H71.1522ZM70.9182 96.004C70.9182 95.328 71.3992 94.834 72.0622 94.834C72.7512 94.834 73.2192 95.328 73.2192 96.004C73.2192 96.667 72.7512 97.148 72.0622 97.148C71.3862 97.148 70.9182 96.667 70.9182 96.004ZM74.3895 105V94.756H76.1835V105H74.3895ZM81.073 105.143C78.811 105.143 77.355 103.544 77.355 101.503C77.355 99.462 78.941 97.837 81.034 97.837C83.14 97.837 84.661 99.358 84.661 101.438V102.114H79.084C79.318 103.024 80.059 103.596 81.099 103.596C81.931 103.596 82.49 103.232 82.841 102.66L84.31 103.518C83.608 104.506 82.62 105.143 81.073 105.143ZM81.034 99.358C80.124 99.358 79.422 99.891 79.136 100.71H82.88C82.646 99.839 81.97 99.358 81.034 99.358ZM88.6357 105.143C86.9717 105.143 85.9187 104.519 85.3597 103.401L87.0887 102.725C87.4007 103.349 87.9597 103.674 88.7007 103.674C89.4287 103.674 89.8187 103.323 89.8187 102.907C89.8187 102.4 89.0647 102.283 88.1677 102.101C86.9847 101.854 85.6717 101.49 85.6717 100.008C85.6717 98.825 86.8157 97.798 88.5447 97.811C90.0267 97.811 90.9107 98.37 91.5607 99.306L89.9227 99.969C89.6367 99.501 89.1947 99.228 88.5447 99.228C87.8427 99.228 87.5047 99.514 87.5047 99.904C87.5047 100.346 88.0767 100.463 89.1037 100.684C90.2737 100.918 91.6517 101.321 91.6517 102.829C91.6517 103.921 90.6767 105.156 88.6357 105.143ZM92.1792 99.566V97.98H93.4792V96.459L95.2472 95.419V97.98H97.0932V99.566H95.2472V102.452C95.2472 103.193 95.5592 103.453 96.0142 103.453C96.2612 103.453 96.4562 103.375 96.6642 103.193L97.4832 104.597C97.0282 104.935 96.4562 105.13 95.8062 105.13C94.3372 105.13 93.4792 104.428 93.4792 102.517V99.566H92.1792ZM101.423 105.143C99.3173 105.143 97.7183 103.505 97.7183 101.49C97.7183 99.462 99.3173 97.837 101.423 97.837C103.516 97.837 105.141 99.462 105.141 101.49C105.141 103.505 103.542 105.143 101.423 105.143ZM101.436 103.44C102.502 103.44 103.36 102.569 103.36 101.477C103.36 100.385 102.502 99.514 101.436 99.514C100.357 99.514 99.5123 100.385 99.5123 101.477C99.5123 102.569 100.357 103.44 101.436 103.44ZM106.318 105V97.98H108.112V98.864C108.567 98.227 109.295 97.837 110.166 97.837C111.83 97.837 112.883 98.929 112.883 100.762V105H111.05V101.035C111.05 100.034 110.569 99.41 109.62 99.41C108.775 99.41 108.125 100.034 108.125 101.126V105H106.318ZM117.762 105.143C115.5 105.143 114.044 103.544 114.044 101.503C114.044 99.462 115.63 97.837 117.723 97.837C119.829 97.837 121.35 99.358 121.35 101.438V102.114H115.773C116.007 103.024 116.748 103.596 117.788 103.596C118.62 103.596 119.179 103.232 119.53 102.66L120.999 103.518C120.297 104.506 119.309 105.143 117.762 105.143ZM117.723 99.358C116.813 99.358 116.111 99.891 115.825 100.71H119.569C119.335 99.839 118.659 99.358 117.723 99.358ZM125.577 105V94.756H127.371V105H125.577ZM132.261 105.143C129.999 105.143 128.543 103.544 128.543 101.503C128.543 99.462 130.129 97.837 132.222 97.837C134.328 97.837 135.849 99.358 135.849 101.438V102.114H130.272C130.506 103.024 131.247 103.596 132.287 103.596C133.119 103.596 133.678 103.232 134.029 102.66L135.498 103.518C134.796 104.506 133.808 105.143 132.261 105.143ZM132.222 99.358C131.312 99.358 130.61 99.891 130.324 100.71H134.068C133.834 99.839 133.158 99.358 132.222 99.358ZM139.098 105.143C137.564 105.143 136.654 104.285 136.654 103.05C136.654 101.594 137.863 100.697 139.813 100.697H141.659V100.606C141.659 99.852 141.152 99.332 140.138 99.332C139.345 99.332 138.812 99.67 138.487 100.255L136.836 99.436C137.551 98.5 138.578 97.837 140.151 97.837C142.218 97.837 143.401 98.916 143.401 100.684V105H141.672V103.921C141.165 104.649 140.203 105.143 139.098 105.143ZM139.618 103.661C140.476 103.661 141.321 103.141 141.672 102.387V102.01H140.021C138.955 102.01 138.526 102.348 138.526 102.894C138.526 103.401 138.877 103.661 139.618 103.661ZM144.785 105V97.98H146.553V99.059C146.891 98.227 147.593 97.85 148.49 97.85C148.958 97.85 149.374 97.967 149.673 98.123L149.023 99.891C148.828 99.748 148.49 99.644 148.087 99.644C147.164 99.644 146.566 100.112 146.566 101.295V105H144.785ZM150.599 105V97.98H152.393V98.864C152.848 98.227 153.576 97.837 154.447 97.837C156.111 97.837 157.164 98.929 157.164 100.762V105H155.331V101.035C155.331 100.034 154.85 99.41 153.901 99.41C153.056 99.41 152.406 100.034 152.406 101.126V105H150.599ZM163.791 105.143C162.257 105.143 161.347 104.285 161.347 103.05C161.347 101.594 162.556 100.697 164.506 100.697H166.352V100.606C166.352 99.852 165.845 99.332 164.831 99.332C164.038 99.332 163.505 99.67 163.18 100.255L161.529 99.436C162.244 98.5 163.271 97.837 164.844 97.837C166.911 97.837 168.094 98.916 168.094 100.684V105H166.365V103.921C165.858 104.649 164.896 105.143 163.791 105.143ZM164.311 103.661C165.169 103.661 166.014 103.141 166.365 102.387V102.01H164.714C163.648 102.01 163.219 102.348 163.219 102.894C163.219 103.401 163.57 103.661 164.311 103.661ZM173.468 105.143C172.532 105.143 171.713 104.727 171.245 104.025V105H169.477V94.743H171.258V98.942C171.726 98.266 172.506 97.837 173.455 97.837C175.223 97.837 176.835 99.254 176.835 101.49C176.835 103.726 175.197 105.143 173.468 105.143ZM173.104 103.453C174.183 103.453 175.041 102.582 175.041 101.477C175.041 100.372 174.183 99.501 173.104 99.501C171.999 99.501 171.154 100.385 171.154 101.477C171.154 102.569 171.999 103.453 173.104 103.453ZM181.505 105.143C179.399 105.143 177.8 103.505 177.8 101.49C177.8 99.462 179.399 97.837 181.505 97.837C183.598 97.837 185.223 99.462 185.223 101.49C185.223 103.505 183.624 105.143 181.505 105.143ZM181.518 103.44C182.584 103.44 183.442 102.569 183.442 101.477C183.442 100.385 182.584 99.514 181.518 99.514C180.439 99.514 179.594 100.385 179.594 101.477C179.594 102.569 180.439 103.44 181.518 103.44ZM189.105 105.143C187.376 105.143 186.375 104.038 186.375 102.192V97.98H188.208V101.945C188.208 102.933 188.676 103.544 189.638 103.544C190.483 103.544 191.107 102.933 191.107 101.841V97.98L192.927 97.967V104.987L191.133 105V104.116C190.678 104.753 189.963 105.143 189.105 105.143ZM193.958 99.566V97.98H195.258V96.459L197.026 95.419V97.98H198.872V99.566H197.026V102.452C197.026 103.193 197.338 103.453 197.793 103.453C198.04 103.453 198.235 103.375 198.443 103.193L199.262 104.597C198.807 104.935 198.235 105.13 197.585 105.13C196.116 105.13 195.258 104.428 195.258 102.517V99.566H193.958ZM200.221 104.038C200.221 103.375 200.689 102.894 201.352 102.894C202.015 102.894 202.483 103.375 202.483 104.038C202.483 104.701 202.015 105.182 201.352 105.182C200.676 105.182 200.221 104.701 200.221 104.038ZM200.221 99.566C200.221 98.903 200.689 98.422 201.352 98.422C202.015 98.422 202.483 98.903 202.483 99.566C202.483 100.229 202.015 100.697 201.352 100.697C200.676 100.697 200.221 100.229 200.221 99.566ZM38.7583 122.92C38.0953 122.92 37.5493 122.374 37.5493 121.711C37.5493 121.048 38.0953 120.502 38.7583 120.502C39.4213 120.502 39.9673 121.048 39.9673 121.711C39.9673 122.374 39.4213 122.92 38.7583 122.92ZM51.516 125L48.838 115.51H50.32L52.309 122.842L54.649 115.51H55.949L58.25 122.855L60.33 115.51H61.76L58.965 125H57.587L55.286 117.616L52.933 125H51.516ZM62.9027 125V114.756H64.2937V118.916C64.7877 118.266 65.5677 117.837 66.5167 117.837C68.2977 117.837 69.4027 119.007 69.4027 120.931V125H67.9727V121.035C67.9727 119.839 67.3747 119.072 66.1787 119.072C65.1257 119.072 64.3067 119.865 64.3067 121.126V125H62.9027ZM73.1866 125.143C71.5616 125.143 70.7036 124.246 70.7036 123.063C70.7036 121.62 71.8996 120.736 73.8626 120.736H75.9426V120.619C75.9426 119.683 75.3706 119.033 74.1226 119.033C73.1996 119.033 72.5106 119.475 72.1076 120.164L70.8596 119.436C71.5486 118.513 72.6276 117.837 74.1356 117.837C76.1506 117.837 77.2946 118.955 77.2946 120.658V125H75.9426V123.765C75.3836 124.597 74.3566 125.143 73.1866 125.143ZM73.4856 123.921C74.4866 123.921 75.4876 123.362 75.9426 122.439V121.854H73.9536C72.6536 121.854 72.1336 122.257 72.1336 122.946C72.1336 123.557 72.5496 123.921 73.4856 123.921ZM78.163 119.241V117.98H79.554V116.459L80.932 115.562V117.98H82.895V119.241H80.932V122.699C80.932 123.466 81.309 123.804 81.855 123.804C82.128 123.804 82.349 123.726 82.57 123.531L83.233 124.701C82.83 124.974 82.336 125.13 81.751 125.13C80.36 125.13 79.554 124.441 79.554 122.712V119.241H78.163ZM86.7958 119.241V117.98H88.1868V116.459L89.5648 115.562V117.98H91.5278V119.241H89.5648V122.699C89.5648 123.466 89.9418 123.804 90.4878 123.804C90.7608 123.804 90.9818 123.726 91.2028 123.531L91.8658 124.701C91.4628 124.974 90.9688 125.13 90.3838 125.13C88.9928 125.13 88.1868 124.441 88.1868 122.712V119.241H86.7958ZM95.8123 125.143C93.7843 125.143 92.1593 123.518 92.1593 121.49C92.1593 119.462 93.7843 117.837 95.8123 117.837C97.8403 117.837 99.4653 119.462 99.4653 121.49C99.4653 123.518 97.8403 125.143 95.8123 125.143ZM95.8123 123.83C97.0863 123.83 98.0743 122.79 98.0743 121.49C98.0743 120.19 97.0733 119.15 95.8123 119.15C94.5383 119.15 93.5633 120.19 93.5633 121.49C93.5633 122.79 94.5383 123.83 95.8123 123.83ZM107.418 125.143C105.182 125.143 103.687 123.557 103.687 121.516C103.687 119.449 105.273 117.837 107.34 117.837C109.407 117.837 110.941 119.345 110.941 121.425V122.01H105.039C105.247 123.141 106.131 123.895 107.418 123.895C108.406 123.895 109.056 123.44 109.472 122.764L110.629 123.453C109.953 124.467 108.939 125.143 107.418 125.143ZM107.34 119.072C106.222 119.072 105.364 119.8 105.091 120.814H109.524C109.316 119.709 108.497 119.072 107.34 119.072ZM111.232 125L113.936 121.438L111.349 117.98H113.039L114.807 120.372L116.588 117.98H118.252L115.665 121.425L118.408 125H116.679L114.794 122.504L112.948 125H111.232ZM123.205 125.143C122.217 125.143 121.307 124.766 120.787 124.064V127.808H119.422V117.98H120.787V119.02C121.32 118.292 122.243 117.837 123.205 117.837C125.064 117.837 126.715 119.28 126.715 121.49C126.715 123.687 125.025 125.143 123.205 125.143ZM123.01 123.856C124.31 123.856 125.311 122.803 125.311 121.477C125.311 120.151 124.31 119.111 123.01 119.111C121.684 119.111 120.696 120.177 120.696 121.477C120.696 122.79 121.684 123.856 123.01 123.856ZM131.539 125.143C129.303 125.143 127.808 123.557 127.808 121.516C127.808 119.449 129.394 117.837 131.461 117.837C133.528 117.837 135.062 119.345 135.062 121.425V122.01H129.16C129.368 123.141 130.252 123.895 131.539 123.895C132.527 123.895 133.177 123.44 133.593 122.764L134.75 123.453C134.074 124.467 133.06 125.143 131.539 125.143ZM131.461 119.072C130.343 119.072 129.485 119.8 129.212 120.814H133.645C133.437 119.709 132.618 119.072 131.461 119.072ZM139.84 125.143C137.747 125.143 136.161 123.518 136.161 121.49C136.161 119.423 137.773 117.837 139.827 117.837C141.374 117.837 142.622 118.721 143.155 119.982L141.894 120.528C141.53 119.67 140.776 119.15 139.827 119.15C138.514 119.15 137.539 120.19 137.539 121.49C137.539 122.777 138.54 123.83 139.853 123.83C140.854 123.83 141.582 123.206 141.92 122.4L143.194 122.933C142.635 124.233 141.465 125.143 139.84 125.143ZM143.849 119.241V117.98H145.24V116.459L146.618 115.562V117.98H148.581V119.241H146.618V122.699C146.618 123.466 146.994 123.804 147.541 123.804C147.814 123.804 148.035 123.726 148.256 123.531L148.919 124.701C148.516 124.974 148.022 125.13 147.437 125.13C146.046 125.13 145.24 124.441 145.24 122.712V119.241H143.849ZM153.001 125V117.98H154.418V125H153.001ZM152.715 115.874C152.715 115.302 153.131 114.873 153.703 114.873C154.288 114.873 154.704 115.302 154.704 115.874C154.704 116.446 154.288 116.875 153.703 116.875C153.118 116.875 152.715 116.446 152.715 115.874ZM156.048 125V117.98H157.426V118.955C157.907 118.279 158.687 117.837 159.662 117.837C161.443 117.837 162.548 119.007 162.548 120.931V125H161.131V121.035C161.131 119.839 160.507 119.072 159.337 119.072C158.271 119.072 157.452 119.865 157.452 121.126V125H156.048ZM169.091 125L166.764 117.98H168.207L169.845 123.089L171.756 117.98H173.121L175.006 123.089L176.696 117.98H178.139L175.695 125H174.356L172.419 119.852L170.469 125H169.091ZM182.383 125.143C180.147 125.143 178.652 123.557 178.652 121.516C178.652 119.449 180.238 117.837 182.305 117.837C184.372 117.837 185.906 119.345 185.906 121.425V122.01H180.004C180.212 123.141 181.096 123.895 182.383 123.895C183.371 123.895 184.021 123.44 184.437 122.764L185.594 123.453C184.918 124.467 183.904 125.143 182.383 125.143ZM182.305 119.072C181.187 119.072 180.329 119.8 180.056 120.814H184.489C184.281 119.709 183.462 119.072 182.305 119.072ZM190.737 125.143C188.501 125.143 187.006 123.557 187.006 121.516C187.006 119.449 188.592 117.837 190.659 117.837C192.726 117.837 194.26 119.345 194.26 121.425V122.01H188.358C188.566 123.141 189.45 123.895 190.737 123.895C191.725 123.895 192.375 123.44 192.791 122.764L193.948 123.453C193.272 124.467 192.258 125.143 190.737 125.143ZM190.659 119.072C189.541 119.072 188.683 119.8 188.41 120.814H192.843C192.635 119.709 191.816 119.072 190.659 119.072ZM200.507 125L198.271 121.815L197.01 123.18V125H195.619V114.756H197.01V121.568L200.286 117.98H202.002L199.285 120.931L202.158 125H200.507ZM210.172 125V122.816H205.921V121.516L210.12 115.51H211.563V121.529H212.954V122.816H211.563V125H210.172ZM207.455 121.529H210.172V117.655L207.455 121.529ZM38.7583 142.92C38.0953 142.92 37.5493 142.374 37.5493 141.711C37.5493 141.048 38.0953 140.502 38.7583 140.502C39.4213 140.502 39.9673 141.048 39.9673 141.711C39.9673 142.374 39.4213 142.92 38.7583 142.92ZM49.462 145V135.51H53.154C55.182 135.51 56.612 136.979 56.612 138.864C56.612 140.736 55.182 142.218 53.128 142.218H50.879V145H49.462ZM53.037 136.81H50.879V140.905H53.037C54.363 140.905 55.195 140.021 55.195 138.864C55.195 137.694 54.363 136.81 53.037 136.81ZM58.1039 145V134.756H59.4949V138.916C59.9889 138.266 60.7689 137.837 61.7179 137.837C63.4989 137.837 64.6039 139.007 64.6039 140.931V145H63.1739V141.035C63.1739 139.839 62.5759 139.072 61.3799 139.072C60.3269 139.072 59.5079 139.865 59.5079 141.126V145H58.1039ZM66.4345 147.6C65.7715 147.6 65.1085 147.379 64.6535 147.041L65.4855 145.858C65.7325 146.105 66.0185 146.261 66.4215 146.261C67.1495 146.261 67.5265 145.962 67.9815 144.961L68.1115 144.662L65.2255 137.98H66.7335L68.8395 143.011L70.8545 137.98H72.3495L69.2165 145.351C68.5145 147.015 67.7865 147.6 66.4345 147.6ZM75.7336 145.143C74.2516 145.143 73.2376 144.61 72.6396 143.596L73.9006 142.881C74.3296 143.544 74.9276 143.921 75.7986 143.921C76.7086 143.921 77.1896 143.466 77.1896 142.933C77.1896 142.322 76.3316 142.179 75.4086 141.984C74.2256 141.737 72.9646 141.347 72.9646 139.917C72.9646 138.825 74.0176 137.811 75.6686 137.824C76.9816 137.824 77.8786 138.305 78.4896 139.137L77.2806 139.826C76.9296 139.306 76.4226 138.994 75.6686 138.994C74.8106 138.994 74.3946 139.397 74.3946 139.891C74.3946 140.45 75.0316 140.58 76.0976 140.814C77.2676 141.061 78.5936 141.464 78.5936 142.92C78.5936 143.947 77.6706 145.156 75.7336 145.143ZM79.8636 145V137.98H81.2806V145H79.8636ZM79.5776 135.874C79.5776 135.302 79.9936 134.873 80.5656 134.873C81.1506 134.873 81.5666 135.302 81.5666 135.874C81.5666 136.446 81.1506 136.875 80.5656 136.875C79.9806 136.875 79.5776 136.446 79.5776 135.874ZM86.3168 145.143C84.2238 145.143 82.6378 143.518 82.6378 141.49C82.6378 139.423 84.2498 137.837 86.3038 137.837C87.8508 137.837 89.0988 138.721 89.6318 139.982L88.3708 140.528C88.0068 139.67 87.2528 139.15 86.3038 139.15C84.9908 139.15 84.0158 140.19 84.0158 141.49C84.0158 142.777 85.0168 143.83 86.3298 143.83C87.3308 143.83 88.0588 143.206 88.3968 142.4L89.6708 142.933C89.1118 144.233 87.9418 145.143 86.3168 145.143ZM93.0675 145.143C91.4425 145.143 90.5845 144.246 90.5845 143.063C90.5845 141.62 91.7805 140.736 93.7435 140.736H95.8235V140.619C95.8235 139.683 95.2515 139.033 94.0035 139.033C93.0805 139.033 92.3915 139.475 91.9885 140.164L90.7405 139.436C91.4295 138.513 92.5085 137.837 94.0165 137.837C96.0315 137.837 97.1755 138.955 97.1755 140.658V145H95.8235V143.765C95.2645 144.597 94.2375 145.143 93.0675 145.143ZM93.3665 143.921C94.3675 143.921 95.3685 143.362 95.8235 142.439V141.854H93.8345C92.5345 141.854 92.0145 142.257 92.0145 142.946C92.0145 143.557 92.4305 143.921 93.3665 143.921ZM98.7669 145V134.756H100.184V145H98.7669ZM107.121 145.143C105.496 145.143 104.638 144.246 104.638 143.063C104.638 141.62 105.834 140.736 107.797 140.736H109.877V140.619C109.877 139.683 109.305 139.033 108.057 139.033C107.134 139.033 106.445 139.475 106.042 140.164L104.794 139.436C105.483 138.513 106.562 137.837 108.07 137.837C110.085 137.837 111.229 138.955 111.229 140.658V145H109.877V143.765C109.318 144.597 108.291 145.143 107.121 145.143ZM107.42 143.921C108.421 143.921 109.422 143.362 109.877 142.439V141.854H107.888C106.588 141.854 106.068 142.257 106.068 142.946C106.068 143.557 106.484 143.921 107.42 143.921ZM112.821 145V137.98H114.199V138.955C114.68 138.279 115.46 137.837 116.435 137.837C118.216 137.837 119.321 139.007 119.321 140.931V145H117.904V141.035C117.904 139.839 117.28 139.072 116.11 139.072C115.044 139.072 114.225 139.865 114.225 141.126V145H112.821ZM124.171 145.143C122.338 145.143 120.648 143.687 120.648 141.49C120.648 139.28 122.299 137.837 124.184 137.837C125.12 137.837 126.043 138.266 126.576 138.955V134.73H127.954V145H126.576V143.973C126.03 144.701 125.107 145.143 124.171 145.143ZM124.353 143.856C125.679 143.856 126.654 142.79 126.654 141.477C126.654 140.177 125.679 139.111 124.353 139.111C123.053 139.111 122.039 140.151 122.039 141.477C122.039 142.803 123.053 143.856 124.353 143.856ZM132.689 145V137.98H134.08V138.786C134.509 138.201 135.172 137.837 136.069 137.837C137.187 137.837 137.928 138.305 138.305 139.072C138.747 138.331 139.553 137.837 140.593 137.837C142.517 137.837 143.414 138.994 143.414 140.801V145H141.971V140.879C141.971 139.787 141.49 139.072 140.385 139.072C139.384 139.072 138.734 139.722 138.734 141.009V145H137.317V140.788C137.317 139.722 136.836 139.072 135.77 139.072C134.73 139.072 134.093 139.748 134.093 141.074V145H132.689ZM148.474 145.143C146.238 145.143 144.743 143.557 144.743 141.516C144.743 139.449 146.329 137.837 148.396 137.837C150.463 137.837 151.997 139.345 151.997 141.425V142.01H146.095C146.303 143.141 147.187 143.895 148.474 143.895C149.462 143.895 150.112 143.44 150.528 142.764L151.685 143.453C151.009 144.467 149.995 145.143 148.474 145.143ZM148.396 139.072C147.278 139.072 146.42 139.8 146.147 140.814H150.58C150.372 139.709 149.553 139.072 148.396 139.072ZM153.357 145V137.98H154.735V138.955C155.216 138.279 155.996 137.837 156.971 137.837C158.752 137.837 159.857 139.007 159.857 140.931V145H158.44V141.035C158.44 139.839 157.816 139.072 156.646 139.072C155.58 139.072 154.761 139.865 154.761 141.126V145H153.357ZM160.695 139.241V137.98H162.086V136.459L163.464 135.562V137.98H165.427V139.241H163.464V142.699C163.464 143.466 163.841 143.804 164.387 143.804C164.66 143.804 164.881 143.726 165.102 143.531L165.765 144.701C165.362 144.974 164.868 145.13 164.283 145.13C162.892 145.13 162.086 144.441 162.086 142.712V139.241H160.695ZM168.897 145.143C167.272 145.143 166.414 144.246 166.414 143.063C166.414 141.62 167.61 140.736 169.573 140.736H171.653V140.619C171.653 139.683 171.081 139.033 169.833 139.033C168.91 139.033 168.221 139.475 167.818 140.164L166.57 139.436C167.259 138.513 168.338 137.837 169.846 137.837C171.861 137.837 173.005 138.955 173.005 140.658V145H171.653V143.765C171.094 144.597 170.067 145.143 168.897 145.143ZM169.196 143.921C170.197 143.921 171.198 143.362 171.653 142.439V141.854H169.664C168.364 141.854 167.844 142.257 167.844 142.946C167.844 143.557 168.26 143.921 169.196 143.921ZM174.596 145V134.756H176.013V145H174.596ZM184.172 145.143C182.079 145.143 180.493 143.518 180.493 141.49C180.493 139.423 182.105 137.837 184.159 137.837C185.706 137.837 186.954 138.721 187.487 139.982L186.226 140.528C185.862 139.67 185.108 139.15 184.159 139.15C182.846 139.15 181.871 140.19 181.871 141.49C181.871 142.777 182.872 143.83 184.185 143.83C185.186 143.83 185.914 143.206 186.252 142.4L187.526 142.933C186.967 144.233 185.797 145.143 184.172 145.143ZM188.777 145V134.756H190.168V138.916C190.662 138.266 191.442 137.837 192.391 137.837C194.172 137.837 195.277 139.007 195.277 140.931V145H193.847V141.035C193.847 139.839 193.249 139.072 192.053 139.072C191 139.072 190.181 139.865 190.181 141.126V145H188.777ZM199.061 145.143C197.436 145.143 196.578 144.246 196.578 143.063C196.578 141.62 197.774 140.736 199.737 140.736H201.817V140.619C201.817 139.683 201.245 139.033 199.997 139.033C199.074 139.033 198.385 139.475 197.982 140.164L196.734 139.436C197.423 138.513 198.502 137.837 200.01 137.837C202.025 137.837 203.169 138.955 203.169 140.658V145H201.817V143.765C201.258 144.597 200.231 145.143 199.061 145.143ZM199.36 143.921C200.361 143.921 201.362 143.362 201.817 142.439V141.854H199.828C198.528 141.854 198.008 142.257 198.008 142.946C198.008 143.557 198.424 143.921 199.36 143.921ZM204.76 145V137.98H206.138V138.955C206.619 138.279 207.399 137.837 208.374 137.837C210.155 137.837 211.26 139.007 211.26 140.931V145H209.843V141.035C209.843 139.839 209.219 139.072 208.049 139.072C206.983 139.072 206.164 139.865 206.164 141.126V145H204.76ZM216.11 145.143C214.277 145.143 212.587 143.687 212.587 141.49C212.587 139.28 214.238 137.837 216.123 137.837C217.059 137.837 217.982 138.279 218.515 138.994V137.98H219.919V144.441C219.919 146.521 218.333 147.938 216.318 147.938C214.628 147.938 213.575 147.418 212.821 146.469L213.952 145.546C214.498 146.3 215.148 146.651 216.292 146.651C217.631 146.651 218.528 145.767 218.528 144.493V143.947C217.995 144.688 217.059 145.143 216.11 145.143ZM216.292 143.856C217.618 143.856 218.593 142.79 218.593 141.477C218.593 140.177 217.618 139.111 216.292 139.111C214.992 139.111 213.978 140.151 213.978 141.477C213.978 142.803 214.992 143.856 216.292 143.856ZM225.002 145.143C222.766 145.143 221.271 143.557 221.271 141.516C221.271 139.449 222.857 137.837 224.924 137.837C226.991 137.837 228.525 139.345 228.525 141.425V142.01H222.623C222.831 143.141 223.715 143.895 225.002 143.895C225.99 143.895 226.64 143.44 227.056 142.764L228.213 143.453C227.537 144.467 226.523 145.143 225.002 145.143ZM224.924 139.072C223.806 139.072 222.948 139.8 222.675 140.814H227.108C226.9 139.709 226.081 139.072 224.924 139.072ZM232.419 145.143C230.937 145.143 229.923 144.61 229.325 143.596L230.586 142.881C231.015 143.544 231.613 143.921 232.484 143.921C233.394 143.921 233.875 143.466 233.875 142.933C233.875 142.322 233.017 142.179 232.094 141.984C230.911 141.737 229.65 141.347 229.65 139.917C229.65 138.825 230.703 137.811 232.354 137.824C233.667 137.824 234.564 138.305 235.175 139.137L233.966 139.826C233.615 139.306 233.108 138.994 232.354 138.994C231.496 138.994 231.08 139.397 231.08 139.891C231.08 140.45 231.717 140.58 232.783 140.814C233.953 141.061 235.279 141.464 235.279 142.92C235.279 143.947 234.356 145.156 232.419 145.143ZM29.897 185V175.51H31.756V185H29.897ZM33.2948 185V177.98H35.0888V178.864C35.5438 178.227 36.2718 177.837 37.1428 177.837C38.8068 177.837 39.8598 178.929 39.8598 180.762V185H38.0268V181.035C38.0268 180.034 37.5458 179.41 36.5968 179.41C35.7518 179.41 35.1018 180.034 35.1018 181.126V185H33.2948ZM40.6495 179.592V177.98H41.8065V177.733C41.8065 175.458 42.5215 174.756 44.8095 174.756H45.2775V176.394H44.9785C43.7305 176.394 43.5875 176.576 43.5875 177.642V177.98H45.2775V179.592H43.5875V185H41.8065V179.592H40.6495ZM49.3979 185.143C47.2919 185.143 45.6929 183.505 45.6929 181.49C45.6929 179.462 47.2919 177.837 49.3979 177.837C51.4909 177.837 53.1159 179.462 53.1159 181.49C53.1159 183.505 51.5169 185.143 49.3979 185.143ZM49.4109 183.44C50.4769 183.44 51.3349 182.569 51.3349 181.477C51.3349 180.385 50.4769 179.514 49.4109 179.514C48.3319 179.514 47.4869 180.385 47.4869 181.477C47.4869 182.569 48.3319 183.44 49.4109 183.44ZM54.2928 185V177.98H56.0608V179.059C56.3988 178.227 57.1008 177.85 57.9978 177.85C58.4658 177.85 58.8818 177.967 59.1808 178.123L58.5308 179.891C58.3358 179.748 57.9978 179.644 57.5948 179.644C56.6718 179.644 56.0738 180.112 56.0738 181.295V185H54.2928ZM60.1073 185V177.98H61.9013V178.812C62.3303 178.201 63.0063 177.837 63.8513 177.837C64.9043 177.837 65.6193 178.266 65.9963 179.02C66.4383 178.292 67.2313 177.837 68.1933 177.837C69.9743 177.837 70.8713 178.929 70.8713 180.684V185H69.0253V180.944C69.0253 179.995 68.6353 179.41 67.7253 179.41C66.9193 179.41 66.3863 179.956 66.3863 181.061V185H64.5533V180.892C64.5533 179.956 64.1633 179.41 63.2923 179.41C62.4473 179.41 61.9143 179.969 61.9143 181.1V185H60.1073ZM74.4156 185.143C72.8816 185.143 71.9716 184.285 71.9716 183.05C71.9716 181.594 73.1806 180.697 75.1306 180.697H76.9766V180.606C76.9766 179.852 76.4696 179.332 75.4556 179.332C74.6626 179.332 74.1296 179.67 73.8046 180.255L72.1536 179.436C72.8686 178.5 73.8956 177.837 75.4686 177.837C77.5356 177.837 78.7186 178.916 78.7186 180.684V185H76.9896V183.921C76.4826 184.649 75.5206 185.143 74.4156 185.143ZM74.9356 183.661C75.7936 183.661 76.6386 183.141 76.9896 182.387V182.01H75.3386C74.2726 182.01 73.8436 182.348 73.8436 182.894C73.8436 183.401 74.1946 183.661 74.9356 183.661ZM79.4712 179.566V177.98H80.7712V176.459L82.5392 175.419V177.98H84.3852V179.566H82.5392V182.452C82.5392 183.193 82.8512 183.453 83.3062 183.453C83.5532 183.453 83.7482 183.375 83.9562 183.193L84.7752 184.597C84.3202 184.935 83.7482 185.13 83.0982 185.13C81.6292 185.13 80.7712 184.428 80.7712 182.517V179.566H79.4712ZM85.5741 185V177.98H87.4071V185H85.5741ZM85.3401 176.004C85.3401 175.328 85.8211 174.834 86.4841 174.834C87.1731 174.834 87.6411 175.328 87.6411 176.004C87.6411 176.667 87.1731 177.148 86.4841 177.148C85.8081 177.148 85.3401 176.667 85.3401 176.004ZM90.9694 185L88.2784 177.98H90.1764L91.9054 182.712L93.6474 177.98H95.5064L92.7504 185H90.9694ZM99.4431 185.143C97.1811 185.143 95.7251 183.544 95.7251 181.503C95.7251 179.462 97.3111 177.837 99.4041 177.837C101.51 177.837 103.031 179.358 103.031 181.438V182.114H97.4541C97.6881 183.024 98.4291 183.596 99.4691 183.596C100.301 183.596 100.86 183.232 101.211 182.66L102.68 183.518C101.978 184.506 100.99 185.143 99.4431 185.143ZM99.4041 179.358C98.4941 179.358 97.7921 179.891 97.5061 180.71H101.25C101.016 179.839 100.34 179.358 99.4041 179.358ZM109.455 185.143C107.921 185.143 107.011 184.285 107.011 183.05C107.011 181.594 108.22 180.697 110.17 180.697H112.016V180.606C112.016 179.852 111.509 179.332 110.495 179.332C109.702 179.332 109.169 179.67 108.844 180.255L107.193 179.436C107.908 178.5 108.935 177.837 110.508 177.837C112.575 177.837 113.758 178.916 113.758 180.684V185H112.029V183.921C111.522 184.649 110.56 185.143 109.455 185.143ZM109.975 183.661C110.833 183.661 111.678 183.141 112.029 182.387V182.01H110.378C109.312 182.01 108.883 182.348 108.883 182.894C108.883 183.401 109.234 183.661 109.975 183.661ZM115.141 185V177.98H116.909V179.059C117.247 178.227 117.949 177.85 118.846 177.85C119.314 177.85 119.73 177.967 120.029 178.123L119.379 179.891C119.184 179.748 118.846 179.644 118.443 179.644C117.52 179.644 116.922 180.112 116.922 181.295V185H115.141ZM120.718 179.566V177.98H122.018V176.459L123.786 175.419V177.98H125.632V179.566H123.786V182.452C123.786 183.193 124.098 183.453 124.553 183.453C124.8 183.453 124.995 183.375 125.203 183.193L126.022 184.597C125.567 184.935 124.995 185.13 124.345 185.13C122.876 185.13 122.018 184.428 122.018 182.517V179.566H120.718ZM126.821 185V177.98H128.654V185H126.821ZM126.587 176.004C126.587 175.328 127.068 174.834 127.731 174.834C128.42 174.834 128.888 175.328 128.888 176.004C128.888 176.667 128.42 177.148 127.731 177.148C127.055 177.148 126.587 176.667 126.587 176.004ZM133.529 185.143C131.423 185.143 129.837 183.531 129.837 181.49C129.837 179.423 131.436 177.837 133.516 177.837C135.141 177.837 136.389 178.734 136.935 180.06L135.284 180.723C134.998 179.969 134.348 179.514 133.542 179.514C132.463 179.514 131.618 180.398 131.618 181.49C131.618 182.556 132.476 183.44 133.555 183.44C134.387 183.44 135.011 182.933 135.297 182.218L136.974 182.907C136.376 184.207 135.206 185.143 133.529 185.143ZM138.031 185V174.756H139.825V185H138.031ZM144.715 185.143C142.453 185.143 140.997 183.544 140.997 181.503C140.997 179.462 142.583 177.837 144.676 177.837C146.782 177.837 148.303 179.358 148.303 181.438V182.114H142.726C142.96 183.024 143.701 183.596 144.741 183.596C145.573 183.596 146.132 183.232 146.483 182.66L147.952 183.518C147.25 184.506 146.262 185.143 144.715 185.143ZM144.676 179.358C143.766 179.358 143.064 179.891 142.778 180.71H146.522C146.288 179.839 145.612 179.358 144.676 179.358ZM152.277 185.143C150.613 185.143 149.56 184.519 149.001 183.401L150.73 182.725C151.042 183.349 151.601 183.674 152.342 183.674C153.07 183.674 153.46 183.323 153.46 182.907C153.46 182.4 152.706 182.283 151.809 182.101C150.626 181.854 149.313 181.49 149.313 180.008C149.313 178.825 150.457 177.798 152.186 177.811C153.668 177.811 154.552 178.37 155.202 179.306L153.564 179.969C153.278 179.501 152.836 179.228 152.186 179.228C151.484 179.228 151.146 179.514 151.146 179.904C151.146 180.346 151.718 180.463 152.745 180.684C153.915 180.918 155.293 181.321 155.293 182.829C155.293 183.921 154.318 185.156 152.277 185.143ZM159.097 179.592V177.98H160.254V177.733C160.254 175.458 160.969 174.756 163.257 174.756H163.725V176.394H163.426C162.178 176.394 162.035 176.576 162.035 177.642V177.98H163.725V179.592H162.035V185H160.254V179.592H159.097ZM164.844 185V177.98H166.612V179.059C166.95 178.227 167.652 177.85 168.549 177.85C169.017 177.85 169.433 177.967 169.732 178.123L169.082 179.891C168.887 179.748 168.549 179.644 168.146 179.644C167.223 179.644 166.625 180.112 166.625 181.295V185H164.844ZM173.558 185.143C171.452 185.143 169.853 183.505 169.853 181.49C169.853 179.462 171.452 177.837 173.558 177.837C175.651 177.837 177.276 179.462 177.276 181.49C177.276 183.505 175.677 185.143 173.558 185.143ZM173.571 183.44C174.637 183.44 175.495 182.569 175.495 181.477C175.495 180.385 174.637 179.514 173.571 179.514C172.492 179.514 171.647 180.385 171.647 181.477C171.647 182.569 172.492 183.44 173.571 183.44ZM178.453 185V177.98H180.247V178.812C180.676 178.201 181.352 177.837 182.197 177.837C183.25 177.837 183.965 178.266 184.342 179.02C184.784 178.292 185.577 177.837 186.539 177.837C188.32 177.837 189.217 178.929 189.217 180.684V185H187.371V180.944C187.371 179.995 186.981 179.41 186.071 179.41C185.265 179.41 184.732 179.956 184.732 181.061V185H182.899V180.892C182.899 179.956 182.509 179.41 181.638 179.41C180.793 179.41 180.26 179.969 180.26 181.1V185H178.453ZM197.121 185.143C195.015 185.143 193.416 183.505 193.416 181.49C193.416 179.462 195.015 177.837 197.121 177.837C199.214 177.837 200.839 179.462 200.839 181.49C200.839 183.505 199.24 185.143 197.121 185.143ZM197.134 183.44C198.2 183.44 199.058 182.569 199.058 181.477C199.058 180.385 198.2 179.514 197.134 179.514C196.055 179.514 195.21 180.385 195.21 181.477C195.21 182.569 196.055 183.44 197.134 183.44ZM204.72 185.143C202.991 185.143 201.99 184.038 201.99 182.192V177.98H203.823V181.945C203.823 182.933 204.291 183.544 205.253 183.544C206.098 183.544 206.722 182.933 206.722 181.841V177.98L208.542 177.967V184.987L206.748 185V184.116C206.293 184.753 205.578 185.143 204.72 185.143ZM209.975 185V177.98H211.743V179.059C212.081 178.227 212.783 177.85 213.68 177.85C214.148 177.85 214.564 177.967 214.863 178.123L214.213 179.891C214.018 179.748 213.68 179.644 213.277 179.644C212.354 179.644 211.756 180.112 211.756 181.295V185H209.975ZM218.447 179.566V177.98H219.747V176.459L221.515 175.419V177.98H223.361V179.566H221.515V182.452C221.515 183.193 221.827 183.453 222.282 183.453C222.529 183.453 222.724 183.375 222.932 183.193L223.751 184.597C223.296 184.935 222.724 185.13 222.074 185.13C220.605 185.13 219.747 184.428 219.747 182.517V179.566H218.447ZM224.55 185V177.98H226.318V179.059C226.656 178.227 227.358 177.85 228.255 177.85C228.723 177.85 229.139 177.967 229.438 178.123L228.788 179.891C228.593 179.748 228.255 179.644 227.852 179.644C226.929 179.644 226.331 180.112 226.331 181.295V185H224.55ZM233.081 185.143C231.352 185.143 230.351 184.038 230.351 182.192V177.98H232.184V181.945C232.184 182.933 232.652 183.544 233.614 183.544C234.459 183.544 235.083 182.933 235.083 181.841V177.98L236.903 177.967V184.987L235.109 185V184.116C234.654 184.753 233.939 185.143 233.081 185.143ZM241.106 185.143C239.442 185.143 238.389 184.519 237.83 183.401L239.559 182.725C239.871 183.349 240.43 183.674 241.171 183.674C241.899 183.674 242.289 183.323 242.289 182.907C242.289 182.4 241.535 182.283 240.638 182.101C239.455 181.854 238.142 181.49 238.142 180.008C238.142 178.825 239.286 177.798 241.015 177.811C242.497 177.811 243.381 178.37 244.031 179.306L242.393 179.969C242.107 179.501 241.665 179.228 241.015 179.228C240.313 179.228 239.975 179.514 239.975 179.904C239.975 180.346 240.547 180.463 241.574 180.684C242.744 180.918 244.122 181.321 244.122 182.829C244.122 183.921 243.147 185.156 241.106 185.143ZM244.65 179.566V177.98H245.95V176.459L247.718 175.419V177.98H249.564V179.566H247.718V182.452C247.718 183.193 248.03 183.453 248.485 183.453C248.732 183.453 248.927 183.375 249.135 183.193L249.954 184.597C249.499 184.935 248.927 185.13 248.277 185.13C246.808 185.13 245.95 184.428 245.95 182.517V179.566H244.65ZM253.907 185.143C251.645 185.143 250.189 183.544 250.189 181.503C250.189 179.462 251.775 177.837 253.868 177.837C255.974 177.837 257.495 179.358 257.495 181.438V182.114H251.918C252.152 183.024 252.893 183.596 253.933 183.596C254.765 183.596 255.324 183.232 255.675 182.66L257.144 183.518C256.442 184.506 255.454 185.143 253.907 185.143ZM253.868 179.358C252.958 179.358 252.256 179.891 251.97 180.71H255.714C255.48 179.839 254.804 179.358 253.868 179.358ZM261.834 185.143C260.105 185.143 258.454 183.726 258.454 181.49C258.454 179.254 260.066 177.837 261.86 177.837C262.783 177.837 263.55 178.227 264.031 178.877V174.743H265.799V185H264.031V184.038C263.537 184.727 262.744 185.143 261.834 185.143ZM262.185 183.453C263.29 183.453 264.135 182.569 264.135 181.477C264.135 180.385 263.29 179.501 262.185 179.501C261.106 179.501 260.235 180.372 260.235 181.477C260.235 182.582 261.106 183.453 262.185 183.453ZM33.693 205.143C32.744 205.143 31.951 204.792 31.483 204.142V207.808H29.702V197.98H31.47V198.955C31.938 198.266 32.731 197.837 33.68 197.837C35.448 197.837 37.06 199.254 37.06 201.49C37.06 203.726 35.422 205.143 33.693 205.143ZM33.329 203.453C34.408 203.453 35.266 202.582 35.266 201.477C35.266 200.372 34.408 199.501 33.329 199.501C32.224 199.501 31.379 200.385 31.379 201.477C31.379 202.569 32.224 203.453 33.329 203.453ZM40.3414 205.143C38.8074 205.143 37.8974 204.285 37.8974 203.05C37.8974 201.594 39.1064 200.697 41.0564 200.697H42.9024V200.606C42.9024 199.852 42.3954 199.332 41.3814 199.332C40.5884 199.332 40.0554 199.67 39.7304 200.255L38.0794 199.436C38.7944 198.5 39.8214 197.837 41.3944 197.837C43.4614 197.837 44.6444 198.916 44.6444 200.684V205H42.9154V203.921C42.4084 204.649 41.4464 205.143 40.3414 205.143ZM40.8614 203.661C41.7194 203.661 42.5644 203.141 42.9154 202.387V202.01H41.2644C40.1984 202.01 39.7694 202.348 39.7694 202.894C39.7694 203.401 40.1204 203.661 40.8614 203.661ZM46.0282 205V197.98H47.7962V199.059C48.1342 198.227 48.8362 197.85 49.7332 197.85C50.2012 197.85 50.6172 197.967 50.9162 198.123L50.2662 199.891C50.0712 199.748 49.7332 199.644 49.3302 199.644C48.4072 199.644 47.8092 200.112 47.8092 201.295V205H46.0282ZM51.605 199.566V197.98H52.905V196.459L54.673 195.419V197.98H56.519V199.566H54.673V202.452C54.673 203.193 54.985 203.453 55.44 203.453C55.687 203.453 55.882 203.375 56.09 203.193L56.909 204.597C56.454 204.935 55.882 205.13 55.232 205.13C53.763 205.13 52.905 204.428 52.905 202.517V199.566H51.605ZM57.7079 205V197.98H59.5019V198.864C59.9569 198.227 60.6849 197.837 61.5559 197.837C63.2199 197.837 64.2729 198.929 64.2729 200.762V205H62.4399V201.035C62.4399 200.034 61.9589 199.41 61.0099 199.41C60.1649 199.41 59.5149 200.034 59.5149 201.126V205H57.7079ZM69.1521 205.143C66.8901 205.143 65.4341 203.544 65.4341 201.503C65.4341 199.462 67.0201 197.837 69.1131 197.837C71.2191 197.837 72.7401 199.358 72.7401 201.438V202.114H67.1631C67.3971 203.024 68.1381 203.596 69.1781 203.596C70.0101 203.596 70.5691 203.232 70.9201 202.66L72.3891 203.518C71.6871 204.506 70.6991 205.143 69.1521 205.143ZM69.1131 199.358C68.2031 199.358 67.5011 199.891 67.2151 200.71H70.9591C70.7251 199.839 70.0491 199.358 69.1131 199.358ZM73.9071 205V197.98H75.6751V199.059C76.0131 198.227 76.7151 197.85 77.6121 197.85C78.0801 197.85 78.4961 197.967 78.7951 198.123L78.1451 199.891C77.9501 199.748 77.6121 199.644 77.2091 199.644C76.2861 199.644 75.6881 200.112 75.6881 201.295V205H73.9071ZM82.2245 205.143C80.5605 205.143 79.5075 204.519 78.9485 203.401L80.6775 202.725C80.9895 203.349 81.5485 203.674 82.2895 203.674C83.0175 203.674 83.4075 203.323 83.4075 202.907C83.4075 202.4 82.6535 202.283 81.7565 202.101C80.5735 201.854 79.2605 201.49 79.2605 200.008C79.2605 198.825 80.4045 197.798 82.1335 197.811C83.6155 197.811 84.4995 198.37 85.1495 199.306L83.5115 199.969C83.2255 199.501 82.7835 199.228 82.1335 199.228C81.4315 199.228 81.0935 199.514 81.0935 199.904C81.0935 200.346 81.6655 200.463 82.6925 200.684C83.8625 200.918 85.2405 201.321 85.2405 202.829C85.2405 203.921 84.2655 205.156 82.2245 205.143ZM89.4081 205V194.756H91.2021V205H89.4081ZM92.6073 205V197.98H94.4403V205H92.6073ZM92.3733 196.004C92.3733 195.328 92.8543 194.834 93.5173 194.834C94.2063 194.834 94.6743 195.328 94.6743 196.004C94.6743 196.667 94.2063 197.148 93.5173 197.148C92.8413 197.148 92.3733 196.667 92.3733 196.004ZM100.694 205L98.7046 202.101L97.6256 203.31V205H95.8446V194.756H97.6256V201.243L100.473 197.98H102.618L99.9786 200.97L102.748 205H100.694ZM106.286 205.143C104.024 205.143 102.568 203.544 102.568 201.503C102.568 199.462 104.154 197.837 106.247 197.837C108.353 197.837 109.874 199.358 109.874 201.438V202.114H104.297C104.531 203.024 105.272 203.596 106.312 203.596C107.144 203.596 107.703 203.232 108.054 202.66L109.523 203.518C108.821 204.506 107.833 205.143 106.286 205.143ZM106.247 199.358C105.337 199.358 104.635 199.891 104.349 200.71H108.093C107.859 199.839 107.183 199.358 106.247 199.358ZM110.885 204.038C110.885 203.375 111.353 202.894 112.016 202.894C112.679 202.894 113.147 203.375 113.147 204.038C113.147 204.701 112.679 205.182 112.016 205.182C111.34 205.182 110.885 204.701 110.885 204.038ZM110.885 199.566C110.885 198.903 111.353 198.422 112.016 198.422C112.679 198.422 113.147 198.903 113.147 199.566C113.147 200.229 112.679 200.697 112.016 200.697C111.34 200.697 110.885 200.229 110.885 199.566ZM38.7583 222.92C38.0953 222.92 37.5493 222.374 37.5493 221.711C37.5493 221.048 38.0953 220.502 38.7583 220.502C39.4213 220.502 39.9673 221.048 39.9673 221.711C39.9673 222.374 39.4213 222.92 38.7583 222.92ZM52.348 225.13C50.788 225.13 49.644 224.337 49.124 223.362L50.437 222.569C50.775 223.258 51.386 223.817 52.348 223.817C53.349 223.817 54.168 223.076 54.168 221.984C54.168 220.84 53.336 220.099 52.335 220.099C51.425 220.099 50.84 220.554 50.476 221.243L49.189 220.658L49.917 215.51H54.961V216.836H51.061L50.697 219.397C51.126 219.072 51.711 218.812 52.439 218.812C54.103 218.812 55.598 219.878 55.598 221.984C55.598 223.856 54.22 225.13 52.348 225.13ZM60.2403 225V215.51H63.9323C65.9603 215.51 67.3903 216.979 67.3903 218.864C67.3903 220.736 65.9603 222.218 63.9063 222.218H61.6573V225H60.2403ZM63.8153 216.81H61.6573V220.905H63.8153C65.1413 220.905 65.9733 220.021 65.9733 218.864C65.9733 217.694 65.1413 216.81 63.8153 216.81ZM71.9451 225.143C69.9171 225.143 68.2921 223.518 68.2921 221.49C68.2921 219.462 69.9171 217.837 71.9451 217.837C73.9731 217.837 75.5981 219.462 75.5981 221.49C75.5981 223.518 73.9731 225.143 71.9451 225.143ZM71.9451 223.83C73.2191 223.83 74.2071 222.79 74.2071 221.49C74.2071 220.19 73.2061 219.15 71.9451 219.15C70.6711 219.15 69.6961 220.19 69.6961 221.49C69.6961 222.79 70.6711 223.83 71.9451 223.83ZM79.4025 225.143C77.9205 225.143 76.9065 224.61 76.3085 223.596L77.5695 222.881C77.9985 223.544 78.5965 223.921 79.4675 223.921C80.3775 223.921 80.8585 223.466 80.8585 222.933C80.8585 222.322 80.0005 222.179 79.0775 221.984C77.8945 221.737 76.6335 221.347 76.6335 219.917C76.6335 218.825 77.6865 217.811 79.3375 217.824C80.6505 217.824 81.5475 218.305 82.1585 219.137L80.9495 219.826C80.5985 219.306 80.0915 218.994 79.3375 218.994C78.4795 218.994 78.0635 219.397 78.0635 219.891C78.0635 220.45 78.7005 220.58 79.7665 220.814C80.9365 221.061 82.2625 221.464 82.2625 222.92C82.2625 223.947 81.3395 225.156 79.4025 225.143ZM82.9364 219.241V217.98H84.3274V216.459L85.7054 215.562V217.98H87.6684V219.241H85.7054V222.699C85.7054 223.466 86.0824 223.804 86.6284 223.804C86.9014 223.804 87.1224 223.726 87.3434 223.531L88.0064 224.701C87.6034 224.974 87.1094 225.13 86.5244 225.13C85.1334 225.13 84.3274 224.441 84.3274 222.712V219.241H82.9364ZM92.7492 225.143C91.7612 225.143 90.8512 224.766 90.3312 224.064V227.808H88.9662V217.98H90.3312V219.02C90.8642 218.292 91.7872 217.837 92.7492 217.837C94.6082 217.837 96.2592 219.28 96.2592 221.49C96.2592 223.687 94.5692 225.143 92.7492 225.143ZM92.5542 223.856C93.8542 223.856 94.8552 222.803 94.8552 221.477C94.8552 220.151 93.8542 219.111 92.5542 219.111C91.2282 219.111 90.2402 220.177 90.2402 221.477C90.2402 222.79 91.2282 223.856 92.5542 223.856ZM99.7579 225.143C98.1329 225.143 97.2749 224.246 97.2749 223.063C97.2749 221.62 98.4709 220.736 100.434 220.736H102.514V220.619C102.514 219.683 101.942 219.033 100.694 219.033C99.7709 219.033 99.0819 219.475 98.6789 220.164L97.4309 219.436C98.1199 218.513 99.1989 217.837 100.707 217.837C102.722 217.837 103.866 218.955 103.866 220.658V225H102.514V223.765C101.955 224.597 100.928 225.143 99.7579 225.143ZM100.057 223.921C101.058 223.921 102.059 223.362 102.514 222.439V221.854H100.525C99.2249 221.854 98.7049 222.257 98.7049 222.946C98.7049 223.557 99.1209 223.921 100.057 223.921ZM105.444 225V217.98H106.822V219.202C107.121 218.318 107.836 217.876 108.733 217.876C109.214 217.876 109.643 217.98 109.916 218.149L109.37 219.501C109.175 219.371 108.889 219.293 108.486 219.293C107.485 219.293 106.848 219.787 106.848 221.048V225H105.444ZM110.815 219.241V217.98H112.206V216.459L113.584 215.562V217.98H115.547V219.241H113.584V222.699C113.584 223.466 113.961 223.804 114.507 223.804C114.78 223.804 115.001 223.726 115.222 223.531L115.885 224.701C115.482 224.974 114.988 225.13 114.403 225.13C113.012 225.13 112.206 224.441 112.206 222.712V219.241H110.815ZM119.731 225.143C117.872 225.143 116.832 223.973 116.832 222.036V217.98H118.262V221.945C118.262 223.128 118.86 223.895 120.043 223.895C121.096 223.895 121.902 223.102 121.902 221.854V217.98H123.306V225H121.928V224.038C121.447 224.714 120.667 225.143 119.731 225.143ZM124.932 225V217.98H126.323V218.786C126.752 218.201 127.415 217.837 128.312 217.837C129.43 217.837 130.171 218.305 130.548 219.072C130.99 218.331 131.796 217.837 132.836 217.837C134.76 217.837 135.657 218.994 135.657 220.801V225H134.214V220.879C134.214 219.787 133.733 219.072 132.628 219.072C131.627 219.072 130.977 219.722 130.977 221.009V225H129.56V220.788C129.56 219.722 129.079 219.072 128.013 219.072C126.973 219.072 126.336 219.748 126.336 221.074V225H124.932ZM140.525 225V215.51H144.607C146.531 215.51 147.727 216.485 147.727 218.11C147.727 218.981 147.311 219.696 146.518 220.099C147.363 220.502 147.844 221.243 147.844 222.27C147.844 224.025 146.596 225 144.659 225H140.525ZM144.555 220.801H141.916V223.7H144.659C145.777 223.7 146.427 223.128 146.427 222.244C146.427 221.347 145.868 220.801 144.555 220.801ZM144.607 216.797H141.916V219.488H144.646C145.79 219.488 146.31 218.903 146.31 218.11C146.31 217.291 145.725 216.797 144.607 216.797ZM152.803 225.143C150.567 225.143 149.072 223.557 149.072 221.516C149.072 219.449 150.658 217.837 152.725 217.837C154.792 217.837 156.326 219.345 156.326 221.425V222.01H150.424C150.632 223.141 151.516 223.895 152.803 223.895C153.791 223.895 154.441 223.44 154.857 222.764L156.014 223.453C155.338 224.467 154.324 225.143 152.803 225.143ZM152.725 219.072C151.607 219.072 150.749 219.8 150.476 220.814H154.909C154.701 219.709 153.882 219.072 152.725 219.072ZM157.686 225V214.756H159.103V225H157.686ZM160.771 225V214.756H162.188V225H160.771ZM164.455 227.6C163.792 227.6 163.129 227.379 162.674 227.041L163.506 225.858C163.753 226.105 164.039 226.261 164.442 226.261C165.17 226.261 165.547 225.962 166.002 224.961L166.132 224.662L163.246 217.98H164.754L166.86 223.011L168.875 217.98H170.37L167.237 225.351C166.535 227.015 165.807 227.6 164.455 227.6ZM174.701 225V215.51H180.915V216.862H176.092V219.566H180.915V220.918H176.092V223.635H180.915V225H174.701ZM181.844 225L184.548 221.438L181.961 217.98H183.651L185.419 220.372L187.2 217.98H188.864L186.277 221.425L189.02 225H187.291L185.406 222.504L183.56 225H181.844ZM193.048 225.143C190.812 225.143 189.317 223.557 189.317 221.516C189.317 219.449 190.903 217.837 192.97 217.837C195.037 217.837 196.571 219.345 196.571 221.425V222.01H190.669C190.877 223.141 191.761 223.895 193.048 223.895C194.036 223.895 194.686 223.44 195.102 222.764L196.259 223.453C195.583 224.467 194.569 225.143 193.048 225.143ZM192.97 219.072C191.852 219.072 190.994 219.8 190.721 220.814H195.154C194.946 219.709 194.127 219.072 192.97 219.072ZM197.917 225V217.98H199.295V219.202C199.594 218.318 200.309 217.876 201.206 217.876C201.687 217.876 202.116 217.98 202.389 218.149L201.843 219.501C201.648 219.371 201.362 219.293 200.959 219.293C199.958 219.293 199.321 219.787 199.321 221.048V225H197.917ZM206.262 225.143C204.169 225.143 202.583 223.518 202.583 221.49C202.583 219.423 204.195 217.837 206.249 217.837C207.796 217.837 209.044 218.721 209.577 219.982L208.316 220.528C207.952 219.67 207.198 219.15 206.249 219.15C204.936 219.15 203.961 220.19 203.961 221.49C203.961 222.777 204.962 223.83 206.275 223.83C207.276 223.83 208.004 223.206 208.342 222.4L209.616 222.933C209.057 224.233 207.887 225.143 206.262 225.143ZM210.867 225V217.98H212.284V225H210.867ZM210.581 215.874C210.581 215.302 210.997 214.873 211.569 214.873C212.154 214.873 212.57 215.302 212.57 215.874C212.57 216.446 212.154 216.875 211.569 216.875C210.984 216.875 210.581 216.446 210.581 215.874ZM216.436 225.143C214.954 225.143 213.94 224.61 213.342 223.596L214.603 222.881C215.032 223.544 215.63 223.921 216.501 223.921C217.411 223.921 217.892 223.466 217.892 222.933C217.892 222.322 217.034 222.179 216.111 221.984C214.928 221.737 213.667 221.347 213.667 219.917C213.667 218.825 214.72 217.811 216.371 217.824C217.684 217.824 218.581 218.305 219.192 219.137L217.983 219.826C217.632 219.306 217.125 218.994 216.371 218.994C215.513 218.994 215.097 219.397 215.097 219.891C215.097 220.45 215.734 220.58 216.8 220.814C217.97 221.061 219.296 221.464 219.296 222.92C219.296 223.947 218.373 225.156 216.436 225.143ZM224.037 225.143C221.801 225.143 220.306 223.557 220.306 221.516C220.306 219.449 221.892 217.837 223.959 217.837C226.026 217.837 227.56 219.345 227.56 221.425V222.01H221.658C221.866 223.141 222.75 223.895 224.037 223.895C225.025 223.895 225.675 223.44 226.091 222.764L227.248 223.453C226.572 224.467 225.558 225.143 224.037 225.143ZM223.959 219.072C222.841 219.072 221.983 219.8 221.71 220.814H226.143C225.935 219.709 225.116 219.072 223.959 219.072ZM231.454 225.143C229.972 225.143 228.958 224.61 228.36 223.596L229.621 222.881C230.05 223.544 230.648 223.921 231.519 223.921C232.429 223.921 232.91 223.466 232.91 222.933C232.91 222.322 232.052 222.179 231.129 221.984C229.946 221.737 228.685 221.347 228.685 219.917C228.685 218.825 229.738 217.811 231.389 217.824C232.702 217.824 233.599 218.305 234.21 219.137L233.001 219.826C232.65 219.306 232.143 218.994 231.389 218.994C230.531 218.994 230.115 219.397 230.115 219.891C230.115 220.45 230.752 220.58 231.818 220.814C232.988 221.061 234.314 221.464 234.314 222.92C234.314 223.947 233.391 225.156 231.454 225.143ZM238.187 219.241V217.98H239.578V216.459L240.956 215.562V217.98H242.919V219.241H240.956V222.699C240.956 223.466 241.333 223.804 241.879 223.804C242.152 223.804 242.373 223.726 242.594 223.531L243.257 224.701C242.854 224.974 242.36 225.13 241.775 225.13C240.384 225.13 239.578 224.441 239.578 222.712V219.241H238.187ZM247.204 225.143C245.176 225.143 243.551 223.518 243.551 221.49C243.551 219.462 245.176 217.837 247.204 217.837C249.232 217.837 250.857 219.462 250.857 221.49C250.857 223.518 249.232 225.143 247.204 225.143ZM247.204 223.83C248.478 223.83 249.466 222.79 249.466 221.49C249.466 220.19 248.465 219.15 247.204 219.15C245.93 219.15 244.955 220.19 244.955 221.49C244.955 222.79 245.93 223.83 247.204 223.83ZM258.913 225.13C256.937 225.13 255.689 224.35 254.792 223.128L256.027 222.153C256.716 223.271 257.678 223.791 258.874 223.791C260.148 223.791 260.811 223.167 260.811 222.309C260.811 221.178 259.602 220.957 258.328 220.684C256.859 220.385 255.299 219.995 255.299 218.097C255.299 216.615 256.651 215.38 258.562 215.38C260.187 215.38 261.253 215.965 262.176 217.005L261.006 217.928C260.447 217.174 259.797 216.667 258.562 216.667C257.288 216.667 256.755 217.265 256.755 218.084C256.755 219.046 257.873 219.228 259.108 219.488C260.603 219.8 262.267 220.229 262.267 222.296C262.267 223.752 261.071 225.13 258.913 225.13ZM262.88 219.241V217.98H264.271V216.459L265.649 215.562V217.98H267.612V219.241H265.649V222.699C265.649 223.466 266.026 223.804 266.572 223.804C266.845 223.804 267.066 223.726 267.287 223.531L267.95 224.701C267.547 224.974 267.053 225.13 266.468 225.13C265.077 225.13 264.271 224.441 264.271 222.712V219.241H262.88ZM271.081 225.143C269.456 225.143 268.598 224.246 268.598 223.063C268.598 221.62 269.794 220.736 271.757 220.736H273.837V220.619C273.837 219.683 273.265 219.033 272.017 219.033C271.094 219.033 270.405 219.475 270.002 220.164L268.754 219.436C269.443 218.513 270.522 217.837 272.03 217.837C274.045 217.837 275.189 218.955 275.189 220.658V225H273.837V223.765C273.278 224.597 272.251 225.143 271.081 225.143ZM271.38 223.921C272.381 223.921 273.382 223.362 273.837 222.439V221.854H271.848C270.548 221.854 270.028 222.257 270.028 222.946C270.028 223.557 270.444 223.921 271.38 223.921ZM276.768 225V217.98H278.146V219.202C278.445 218.318 279.16 217.876 280.057 217.876C280.538 217.876 280.967 217.98 281.24 218.149L280.694 219.501C280.499 219.371 280.213 219.293 279.81 219.293C278.809 219.293 278.172 219.787 278.172 221.048V225H276.768ZM282.139 219.241V217.98H283.53V216.459L284.908 215.562V217.98H286.871V219.241H284.908V222.699C284.908 223.466 285.285 223.804 285.831 223.804C286.104 223.804 286.325 223.726 286.546 223.531L287.209 224.701C286.806 224.974 286.312 225.13 285.727 225.13C284.336 225.13 283.53 224.441 283.53 222.712V219.241H282.139ZM49.462 245V235.51H53.154C55.221 235.51 56.56 236.849 56.56 238.682C56.56 239.865 55.897 240.996 54.727 241.49L56.742 245H55.13L53.414 241.867H50.866V245H49.462ZM53.037 236.823H50.866V240.567H53.037C54.48 240.567 55.143 239.644 55.143 238.643C55.143 237.564 54.428 236.823 53.037 236.823ZM58.0023 245V237.98H59.4193V245H58.0023ZM57.7163 235.874C57.7163 235.302 58.1323 234.873 58.7043 234.873C59.2893 234.873 59.7053 235.302 59.7053 235.874C59.7053 236.446 59.2893 236.875 58.7043 236.875C58.1193 236.875 57.7163 236.446 57.7163 235.874ZM64.2995 245.143C62.4665 245.143 60.7765 243.687 60.7765 241.49C60.7765 239.28 62.4275 237.837 64.3125 237.837C65.2485 237.837 66.1715 238.279 66.7045 238.994V237.98H68.1085V244.441C68.1085 246.521 66.5225 247.938 64.5075 247.938C62.8175 247.938 61.7645 247.418 61.0105 246.469L62.1415 245.546C62.6875 246.3 63.3375 246.651 64.4815 246.651C65.8205 246.651 66.7175 245.767 66.7175 244.493V243.947C66.1845 244.688 65.2485 245.143 64.2995 245.143ZM64.4815 243.856C65.8075 243.856 66.7825 242.79 66.7825 241.477C66.7825 240.177 65.8075 239.111 64.4815 239.111C63.1815 239.111 62.1675 240.151 62.1675 241.477C62.1675 242.803 63.1815 243.856 64.4815 243.856ZM69.7201 245V234.756H71.1111V238.916C71.6051 238.266 72.3851 237.837 73.3341 237.837C75.1151 237.837 76.2201 239.007 76.2201 240.931V245H74.7901V241.035C74.7901 239.839 74.1921 239.072 72.9961 239.072C71.9431 239.072 71.1241 239.865 71.1241 241.126V245H69.7201ZM77.0585 239.241V237.98H78.4495V236.459L79.8275 235.562V237.98H81.7905V239.241H79.8275V242.699C79.8275 243.466 80.2045 243.804 80.7505 243.804C81.0235 243.804 81.2445 243.726 81.4655 243.531L82.1285 244.701C81.7255 244.974 81.2315 245.13 80.6465 245.13C79.2555 245.13 78.4495 244.441 78.4495 242.712V239.241H77.0585ZM85.6913 245L89.3573 235.51H90.7873L94.4533 245H92.9843L92.2173 242.972H87.9273L87.1733 245H85.6913ZM90.0723 237.278L88.4343 241.62H91.7103L90.0723 237.278ZM96.512 245L94.185 237.98H95.628L97.266 243.089L99.177 237.98H100.542L102.427 243.089L104.117 237.98H105.56L103.116 245H101.777L99.84 239.852L97.89 245H96.512ZM108.53 245.143C106.905 245.143 106.047 244.246 106.047 243.063C106.047 241.62 107.243 240.736 109.206 240.736H111.286V240.619C111.286 239.683 110.714 239.033 109.466 239.033C108.543 239.033 107.854 239.475 107.451 240.164L106.203 239.436C106.892 238.513 107.971 237.837 109.479 237.837C111.494 237.837 112.638 238.955 112.638 240.658V245H111.286V243.765C110.727 244.597 109.7 245.143 108.53 245.143ZM108.829 243.921C109.83 243.921 110.831 243.362 111.286 242.439V241.854H109.297C107.997 241.854 107.477 242.257 107.477 242.946C107.477 243.557 107.893 243.921 108.829 243.921ZM114.499 247.6C113.836 247.6 113.173 247.379 112.718 247.041L113.55 245.858C113.797 246.105 114.083 246.261 114.486 246.261C115.214 246.261 115.591 245.962 116.046 244.961L116.176 244.662L113.29 237.98H114.798L116.904 243.011L118.919 237.98H120.414L117.281 245.351C116.579 247.015 115.851 247.6 114.499 247.6ZM38.7583 262.92C38.0953 262.92 37.5493 262.374 37.5493 261.711C37.5493 261.048 38.0953 260.502 38.7583 260.502C39.4213 260.502 39.9673 261.048 39.9673 261.711C39.9673 262.374 39.4213 262.92 38.7583 262.92ZM55.429 265V260.905H50.879V265H49.462V255.51H50.879V259.553H55.429V255.51H56.833V265H55.429ZM61.8269 265.143C59.7989 265.143 58.1739 263.518 58.1739 261.49C58.1739 259.462 59.7989 257.837 61.8269 257.837C63.8549 257.837 65.4799 259.462 65.4799 261.49C65.4799 263.518 63.8549 265.143 61.8269 265.143ZM61.8269 263.83C63.1009 263.83 64.0889 262.79 64.0889 261.49C64.0889 260.19 63.0879 259.15 61.8269 259.15C60.5529 259.15 59.5779 260.19 59.5779 261.49C59.5779 262.79 60.5529 263.83 61.8269 263.83ZM66.8252 265V257.98H68.2032V259.202C68.5022 258.318 69.2172 257.876 70.1142 257.876C70.5952 257.876 71.0242 257.98 71.2972 258.149L70.7512 259.501C70.5562 259.371 70.2702 259.293 69.8672 259.293C68.8662 259.293 68.2292 259.787 68.2292 261.048V265H66.8252ZM72.3988 265V257.98H73.7898V258.786C74.2188 258.201 74.8818 257.837 75.7788 257.837C76.8968 257.837 77.6378 258.305 78.0148 259.072C78.4568 258.331 79.2628 257.837 80.3028 257.837C82.2268 257.837 83.1238 258.994 83.1238 260.801V265H81.6808V260.879C81.6808 259.787 81.1998 259.072 80.0948 259.072C79.0938 259.072 78.4438 259.722 78.4438 261.009V265H77.0268V260.788C77.0268 259.722 76.5458 259.072 75.4798 259.072C74.4398 259.072 73.8028 259.748 73.8028 261.074V265H72.3988ZM88.1062 265.143C86.0782 265.143 84.4532 263.518 84.4532 261.49C84.4532 259.462 86.0782 257.837 88.1062 257.837C90.1342 257.837 91.7592 259.462 91.7592 261.49C91.7592 263.518 90.1342 265.143 88.1062 265.143ZM88.1062 263.83C89.3802 263.83 90.3682 262.79 90.3682 261.49C90.3682 260.19 89.3672 259.15 88.1062 259.15C86.8322 259.15 85.8572 260.19 85.8572 261.49C85.8572 262.79 86.8322 263.83 88.1062 263.83ZM93.1175 265V257.98H94.4955V258.955C94.9765 258.279 95.7565 257.837 96.7315 257.837C98.5125 257.837 99.6175 259.007 99.6175 260.931V265H98.2005V261.035C98.2005 259.839 97.5765 259.072 96.4065 259.072C95.3405 259.072 94.5215 259.865 94.5215 261.126V265H93.1175ZM104.675 265.143C102.439 265.143 100.944 263.557 100.944 261.516C100.944 259.449 102.53 257.837 104.597 257.837C106.664 257.837 108.198 259.345 108.198 261.425V262.01H102.296C102.504 263.141 103.388 263.895 104.675 263.895C105.663 263.895 106.313 263.44 106.729 262.764L107.886 263.453C107.21 264.467 106.196 265.143 104.675 265.143ZM104.597 259.072C103.479 259.072 102.621 259.8 102.348 260.814H106.781C106.573 259.709 105.754 259.072 104.597 259.072ZM115.19 265V256.81H112.499V255.51H119.285V256.81H116.594V265H115.19ZM122.563 265.143C120.327 265.143 118.832 263.557 118.832 261.516C118.832 259.449 120.418 257.837 122.485 257.837C124.552 257.837 126.086 259.345 126.086 261.425V262.01H120.184C120.392 263.141 121.276 263.895 122.563 263.895C123.551 263.895 124.201 263.44 124.617 262.764L125.774 263.453C125.098 264.467 124.084 265.143 122.563 265.143ZM122.485 259.072C121.367 259.072 120.509 259.8 120.236 260.814H124.669C124.461 259.709 123.642 259.072 122.485 259.072ZM129.981 265.143C128.499 265.143 127.485 264.61 126.887 263.596L128.148 262.881C128.577 263.544 129.175 263.921 130.046 263.921C130.956 263.921 131.437 263.466 131.437 262.933C131.437 262.322 130.579 262.179 129.656 261.984C128.473 261.737 127.212 261.347 127.212 259.917C127.212 258.825 128.265 257.811 129.916 257.824C131.229 257.824 132.126 258.305 132.737 259.137L131.528 259.826C131.177 259.306 130.67 258.994 129.916 258.994C129.058 258.994 128.642 259.397 128.642 259.891C128.642 260.45 129.279 260.58 130.345 260.814C131.515 261.061 132.841 261.464 132.841 262.92C132.841 263.947 131.918 265.156 129.981 265.143ZM133.515 259.241V257.98H134.906V256.459L136.284 255.562V257.98H138.247V259.241H136.284V262.699C136.284 263.466 136.661 263.804 137.207 263.804C137.48 263.804 137.701 263.726 137.922 263.531L138.585 264.701C138.182 264.974 137.688 265.13 137.103 265.13C135.712 265.13 134.906 264.441 134.906 262.712V259.241H133.515ZM139.544 265V257.98H140.961V265H139.544ZM139.258 255.874C139.258 255.302 139.674 254.873 140.246 254.873C140.831 254.873 141.247 255.302 141.247 255.874C141.247 256.446 140.831 256.875 140.246 256.875C139.661 256.875 139.258 256.446 139.258 255.874ZM142.591 265V257.98H143.969V258.955C144.45 258.279 145.23 257.837 146.205 257.837C147.986 257.837 149.091 259.007 149.091 260.931V265H147.674V261.035C147.674 259.839 147.05 259.072 145.88 259.072C144.814 259.072 143.995 259.865 143.995 261.126V265H142.591ZM153.941 265.143C152.108 265.143 150.418 263.687 150.418 261.49C150.418 259.28 152.069 257.837 153.954 257.837C154.89 257.837 155.813 258.279 156.346 258.994V257.98H157.75V264.441C157.75 266.521 156.164 267.938 154.149 267.938C152.459 267.938 151.406 267.418 150.652 266.469L151.783 265.546C152.329 266.3 152.979 266.651 154.123 266.651C155.462 266.651 156.359 265.767 156.359 264.493V263.947C155.826 264.688 154.89 265.143 153.941 265.143ZM154.123 263.856C155.449 263.856 156.424 262.79 156.424 261.477C156.424 260.177 155.449 259.111 154.123 259.111C152.823 259.111 151.809 260.151 151.809 261.477C151.809 262.803 152.823 263.856 154.123 263.856ZM162.017 259.241V257.98H163.239V257.577C163.239 255.406 163.876 254.756 166.047 254.756H166.385V256.056H166.151C164.799 256.056 164.617 256.277 164.617 257.59V257.98H166.385V259.241H164.617V265H163.239V259.241H162.017ZM170.486 265.143C168.458 265.143 166.833 263.518 166.833 261.49C166.833 259.462 168.458 257.837 170.486 257.837C172.514 257.837 174.139 259.462 174.139 261.49C174.139 263.518 172.514 265.143 170.486 265.143ZM170.486 263.83C171.76 263.83 172.748 262.79 172.748 261.49C172.748 260.19 171.747 259.15 170.486 259.15C169.212 259.15 168.237 260.19 168.237 261.49C168.237 262.79 169.212 263.83 170.486 263.83ZM175.484 265V257.98H176.862V259.202C177.161 258.318 177.876 257.876 178.773 257.876C179.254 257.876 179.683 257.98 179.956 258.149L179.41 259.501C179.215 259.371 178.929 259.293 178.526 259.293C177.525 259.293 176.888 259.787 176.888 261.048V265H175.484ZM184.337 265V255.51H185.754V263.622H190.369V265H184.337ZM194.046 265.143C192.421 265.143 191.563 264.246 191.563 263.063C191.563 261.62 192.759 260.736 194.722 260.736H196.802V260.619C196.802 259.683 196.23 259.033 194.982 259.033C194.059 259.033 193.37 259.475 192.967 260.164L191.719 259.436C192.408 258.513 193.487 257.837 194.995 257.837C197.01 257.837 198.154 258.955 198.154 260.658V265H196.802V263.765C196.243 264.597 195.216 265.143 194.046 265.143ZM194.345 263.921C195.346 263.921 196.347 263.362 196.802 262.439V261.854H194.813C193.513 261.854 192.993 262.257 192.993 262.946C192.993 263.557 193.409 263.921 194.345 263.921ZM203.164 265.143C201.071 265.143 199.485 263.518 199.485 261.49C199.485 259.423 201.097 257.837 203.151 257.837C204.698 257.837 205.946 258.721 206.479 259.982L205.218 260.528C204.854 259.67 204.1 259.15 203.151 259.15C201.838 259.15 200.863 260.19 200.863 261.49C200.863 262.777 201.864 263.83 203.177 263.83C204.178 263.83 204.906 263.206 205.244 262.4L206.518 262.933C205.959 264.233 204.789 265.143 203.164 265.143ZM207.173 259.241V257.98H208.564V256.459L209.942 255.562V257.98H211.905V259.241H209.942V262.699C209.942 263.466 210.319 263.804 210.865 263.804C211.138 263.804 211.359 263.726 211.58 263.531L212.243 264.701C211.84 264.974 211.346 265.13 210.761 265.13C209.37 265.13 208.564 264.441 208.564 262.712V259.241H207.173ZM215.374 265.143C213.749 265.143 212.891 264.246 212.891 263.063C212.891 261.62 214.087 260.736 216.05 260.736H218.13V260.619C218.13 259.683 217.558 259.033 216.31 259.033C215.387 259.033 214.698 259.475 214.295 260.164L213.047 259.436C213.736 258.513 214.815 257.837 216.323 257.837C218.338 257.837 219.482 258.955 219.482 260.658V265H218.13V263.765C217.571 264.597 216.544 265.143 215.374 265.143ZM215.673 263.921C216.674 263.921 217.675 263.362 218.13 262.439V261.854H216.141C214.841 261.854 214.321 262.257 214.321 262.946C214.321 263.557 214.737 263.921 215.673 263.921ZM220.35 259.241V257.98H221.741V256.459L223.119 255.562V257.98H225.082V259.241H223.119V262.699C223.119 263.466 223.496 263.804 224.042 263.804C224.315 263.804 224.536 263.726 224.757 263.531L225.42 264.701C225.017 264.974 224.523 265.13 223.938 265.13C222.547 265.13 221.741 264.441 221.741 262.712V259.241H220.35ZM226.38 265V257.98H227.797V265H226.38ZM226.094 255.874C226.094 255.302 226.51 254.873 227.082 254.873C227.667 254.873 228.083 255.302 228.083 255.874C228.083 256.446 227.667 256.875 227.082 256.875C226.497 256.875 226.094 256.446 226.094 255.874ZM232.807 265.143C230.779 265.143 229.154 263.518 229.154 261.49C229.154 259.462 230.779 257.837 232.807 257.837C234.835 257.837 236.46 259.462 236.46 261.49C236.46 263.518 234.835 265.143 232.807 265.143ZM232.807 263.83C234.081 263.83 235.069 262.79 235.069 261.49C235.069 260.19 234.068 259.15 232.807 259.15C231.533 259.15 230.558 260.19 230.558 261.49C230.558 262.79 231.533 263.83 232.807 263.83ZM237.819 265V257.98H239.197V258.955C239.678 258.279 240.458 257.837 241.433 257.837C243.214 257.837 244.319 259.007 244.319 260.931V265H242.902V261.035C242.902 259.839 242.278 259.072 241.108 259.072C240.042 259.072 239.223 259.865 239.223 261.126V265H237.819ZM38.7583 282.92C38.0953 282.92 37.5493 282.374 37.5493 281.711C37.5493 281.048 38.0953 280.502 38.7583 280.502C39.4213 280.502 39.9673 281.048 39.9673 281.711C39.9673 282.374 39.4213 282.92 38.7583 282.92ZM49.462 285V275.51H52.218C55.299 275.51 57.197 277.564 57.197 280.255C57.197 282.959 55.117 285 52.27 285H49.462ZM52.075 276.81H50.879V283.687H52.127C54.311 283.687 55.767 282.205 55.767 280.255C55.767 278.266 54.454 276.81 52.075 276.81ZM58.6878 285V277.98H60.1048V285H58.6878ZM58.4018 275.874C58.4018 275.302 58.8178 274.873 59.3898 274.873C59.9748 274.873 60.3908 275.302 60.3908 275.874C60.3908 276.446 59.9748 276.875 59.3898 276.875C58.8048 276.875 58.4018 276.446 58.4018 275.874ZM63.8936 285.143C62.2686 285.143 61.4106 284.246 61.4106 283.063C61.4106 281.62 62.6066 280.736 64.5696 280.736H66.6496V280.619C66.6496 279.683 66.0776 279.033 64.8296 279.033C63.9066 279.033 63.2176 279.475 62.8146 280.164L61.5666 279.436C62.2556 278.513 63.3346 277.837 64.8426 277.837C66.8576 277.837 68.0016 278.955 68.0016 280.658V285H66.6496V283.765C66.0906 284.597 65.0636 285.143 63.8936 285.143ZM64.1926 283.921C65.1936 283.921 66.1946 283.362 66.6496 282.439V281.854H64.6606C63.3606 281.854 62.8406 282.257 62.8406 282.946C62.8406 283.557 63.2566 283.921 64.1926 283.921ZM73.3761 285.143C72.3881 285.143 71.4781 284.766 70.9581 284.064V287.808H69.5931V277.98H70.9581V279.02C71.4911 278.292 72.4141 277.837 73.3761 277.837C75.2351 277.837 76.8861 279.28 76.8861 281.49C76.8861 283.687 75.1961 285.143 73.3761 285.143ZM73.1811 283.856C74.4811 283.856 75.4821 282.803 75.4821 281.477C75.4821 280.151 74.4811 279.111 73.1811 279.111C71.8551 279.111 70.8671 280.177 70.8671 281.477C70.8671 282.79 71.8551 283.856 73.1811 283.856ZM78.2132 285V274.756H79.6042V278.916C80.0982 278.266 80.8782 277.837 81.8272 277.837C83.6082 277.837 84.7132 279.007 84.7132 280.931V285H83.2832V281.035C83.2832 279.839 82.6852 279.072 81.4892 279.072C80.4362 279.072 79.6172 279.865 79.6172 281.126V285H78.2132ZM86.2871 285V277.98H87.6651V279.202C87.9641 278.318 88.6791 277.876 89.5761 277.876C90.0571 277.876 90.4861 277.98 90.7591 278.149L90.2131 279.501C90.0181 279.371 89.7321 279.293 89.3291 279.293C88.3281 279.293 87.6911 279.787 87.6911 281.048V285H86.2871ZM93.7403 285.143C92.1153 285.143 91.2573 284.246 91.2573 283.063C91.2573 281.62 92.4533 280.736 94.4163 280.736H96.4963V280.619C96.4963 279.683 95.9243 279.033 94.6763 279.033C93.7533 279.033 93.0643 279.475 92.6613 280.164L91.4133 279.436C92.1023 278.513 93.1813 277.837 94.6893 277.837C96.7043 277.837 97.8483 278.955 97.8483 280.658V285H96.4963V283.765C95.9373 284.597 94.9103 285.143 93.7403 285.143ZM94.0393 283.921C95.0403 283.921 96.0413 283.362 96.4963 282.439V281.854H94.5073C93.2073 281.854 92.6873 282.257 92.6873 282.946C92.6873 283.557 93.1033 283.921 94.0393 283.921ZM102.703 285.143C100.87 285.143 99.1798 283.687 99.1798 281.49C99.1798 279.28 100.831 277.837 102.716 277.837C103.652 277.837 104.575 278.279 105.108 278.994V277.98H106.512V284.441C106.512 286.521 104.926 287.938 102.911 287.938C101.221 287.938 100.168 287.418 99.4138 286.469L100.545 285.546C101.091 286.3 101.741 286.651 102.885 286.651C104.224 286.651 105.121 285.767 105.121 284.493V283.947C104.588 284.688 103.652 285.143 102.703 285.143ZM102.885 283.856C104.211 283.856 105.186 282.79 105.186 281.477C105.186 280.177 104.211 279.111 102.885 279.111C101.585 279.111 100.571 280.151 100.571 281.477C100.571 282.803 101.585 283.856 102.885 283.856ZM108.123 285V277.98H109.514V278.786C109.943 278.201 110.606 277.837 111.503 277.837C112.621 277.837 113.362 278.305 113.739 279.072C114.181 278.331 114.987 277.837 116.027 277.837C117.951 277.837 118.848 278.994 118.848 280.801V285H117.405V280.879C117.405 279.787 116.924 279.072 115.819 279.072C114.818 279.072 114.168 279.722 114.168 281.009V285H112.751V280.788C112.751 279.722 112.27 279.072 111.204 279.072C110.164 279.072 109.527 279.748 109.527 281.074V285H108.123ZM122.635 285.143C121.01 285.143 120.152 284.246 120.152 283.063C120.152 281.62 121.348 280.736 123.311 280.736H125.391V280.619C125.391 279.683 124.819 279.033 123.571 279.033C122.648 279.033 121.959 279.475 121.556 280.164L120.308 279.436C120.997 278.513 122.076 277.837 123.584 277.837C125.599 277.837 126.743 278.955 126.743 280.658V285H125.391V283.765C124.832 284.597 123.805 285.143 122.635 285.143ZM122.934 283.921C123.935 283.921 124.936 283.362 125.391 282.439V281.854H123.402C122.102 281.854 121.582 282.257 121.582 282.946C121.582 283.557 121.998 283.921 122.934 283.921ZM127.611 279.241V277.98H129.002V276.459L130.38 275.562V277.98H132.343V279.241H130.38V282.699C130.38 283.466 130.757 283.804 131.303 283.804C131.576 283.804 131.797 283.726 132.018 283.531L132.681 284.701C132.278 284.974 131.784 285.13 131.199 285.13C129.808 285.13 129.002 284.441 129.002 282.712V279.241H127.611ZM133.641 285V277.98H135.058V285H133.641ZM133.355 275.874C133.355 275.302 133.771 274.873 134.343 274.873C134.928 274.873 135.344 275.302 135.344 275.874C135.344 276.446 134.928 276.875 134.343 276.875C133.758 276.875 133.355 276.446 133.355 275.874ZM140.094 285.143C138.001 285.143 136.415 283.518 136.415 281.49C136.415 279.423 138.027 277.837 140.081 277.837C141.628 277.837 142.876 278.721 143.409 279.982L142.148 280.528C141.784 279.67 141.03 279.15 140.081 279.15C138.768 279.15 137.793 280.19 137.793 281.49C137.793 282.777 138.794 283.83 140.107 283.83C141.108 283.83 141.836 283.206 142.174 282.4L143.448 282.933C142.889 284.233 141.719 285.143 140.094 285.143ZM147.978 285V275.51H152.06C153.984 275.51 155.18 276.485 155.18 278.11C155.18 278.981 154.764 279.696 153.971 280.099C154.816 280.502 155.297 281.243 155.297 282.27C155.297 284.025 154.049 285 152.112 285H147.978ZM152.008 280.801H149.369V283.7H152.112C153.23 283.7 153.88 283.128 153.88 282.244C153.88 281.347 153.321 280.801 152.008 280.801ZM152.06 276.797H149.369V279.488H152.099C153.243 279.488 153.763 278.903 153.763 278.11C153.763 277.291 153.178 276.797 152.06 276.797ZM156.683 285V277.98H158.061V279.202C158.36 278.318 159.075 277.876 159.972 277.876C160.453 277.876 160.882 277.98 161.155 278.149L160.609 279.501C160.414 279.371 160.128 279.293 159.725 279.293C158.724 279.293 158.087 279.787 158.087 281.048V285H156.683ZM165.08 285.143C162.844 285.143 161.349 283.557 161.349 281.516C161.349 279.449 162.935 277.837 165.002 277.837C167.069 277.837 168.603 279.345 168.603 281.425V282.01H162.701C162.909 283.141 163.793 283.895 165.08 283.895C166.068 283.895 166.718 283.44 167.134 282.764L168.291 283.453C167.615 284.467 166.601 285.143 165.08 285.143ZM165.002 279.072C163.884 279.072 163.026 279.8 162.753 280.814H167.186C166.978 279.709 166.159 279.072 165.002 279.072ZM172.07 285.143C170.445 285.143 169.587 284.246 169.587 283.063C169.587 281.62 170.783 280.736 172.746 280.736H174.826V280.619C174.826 279.683 174.254 279.033 173.006 279.033C172.083 279.033 171.394 279.475 170.991 280.164L169.743 279.436C170.432 278.513 171.511 277.837 173.019 277.837C175.034 277.837 176.178 278.955 176.178 280.658V285H174.826V283.765C174.267 284.597 173.24 285.143 172.07 285.143ZM172.369 283.921C173.37 283.921 174.371 283.362 174.826 282.439V281.854H172.837C171.537 281.854 171.017 282.257 171.017 282.946C171.017 283.557 171.433 283.921 172.369 283.921ZM177.047 279.241V277.98H178.438V276.459L179.816 275.562V277.98H181.779V279.241H179.816V282.699C179.816 283.466 180.193 283.804 180.739 283.804C181.012 283.804 181.233 283.726 181.454 283.531L182.117 284.701C181.714 284.974 181.22 285.13 180.635 285.13C179.244 285.13 178.438 284.441 178.438 282.712V279.241H177.047ZM183.077 285V274.756H184.468V278.916C184.962 278.266 185.742 277.837 186.691 277.837C188.472 277.837 189.577 279.007 189.577 280.931V285H188.147V281.035C188.147 279.839 187.549 279.072 186.353 279.072C185.3 279.072 184.481 279.865 184.481 281.126V285H183.077ZM191.163 285V277.98H192.58V285H191.163ZM190.877 275.874C190.877 275.302 191.293 274.873 191.865 274.873C192.45 274.873 192.866 275.302 192.866 275.874C192.866 276.446 192.45 276.875 191.865 276.875C191.28 276.875 190.877 276.446 190.877 275.874ZM194.21 285V277.98H195.588V278.955C196.069 278.279 196.849 277.837 197.824 277.837C199.605 277.837 200.71 279.007 200.71 280.931V285H199.293V281.035C199.293 279.839 198.669 279.072 197.499 279.072C196.433 279.072 195.614 279.865 195.614 281.126V285H194.21ZM205.56 285.143C203.727 285.143 202.037 283.687 202.037 281.49C202.037 279.28 203.688 277.837 205.573 277.837C206.509 277.837 207.432 278.279 207.965 278.994V277.98H209.369V284.441C209.369 286.521 207.783 287.938 205.768 287.938C204.078 287.938 203.025 287.418 202.271 286.469L203.402 285.546C203.948 286.3 204.598 286.651 205.742 286.651C207.081 286.651 207.978 285.767 207.978 284.493V283.947C207.445 284.688 206.509 285.143 205.56 285.143ZM205.742 283.856C207.068 283.856 208.043 282.79 208.043 281.477C208.043 280.177 207.068 279.111 205.742 279.111C204.442 279.111 203.428 280.151 203.428 281.477C203.428 282.803 204.442 283.856 205.742 283.856ZM38.7583 302.92C38.0953 302.92 37.5493 302.374 37.5493 301.711C37.5493 301.048 38.0953 300.502 38.7583 300.502C39.4213 300.502 39.9673 301.048 39.9673 301.711C39.9673 302.374 39.4213 302.92 38.7583 302.92ZM51.503 305.143C49.878 305.143 49.02 304.246 49.02 303.063C49.02 301.62 50.216 300.736 52.179 300.736H54.259V300.619C54.259 299.683 53.687 299.033 52.439 299.033C51.516 299.033 50.827 299.475 50.424 300.164L49.176 299.436C49.865 298.513 50.944 297.837 52.452 297.837C54.467 297.837 55.611 298.955 55.611 300.658V305H54.259V303.765C53.7 304.597 52.673 305.143 51.503 305.143ZM51.802 303.921C52.803 303.921 53.804 303.362 54.259 302.439V301.854H52.27C50.97 301.854 50.45 302.257 50.45 302.946C50.45 303.557 50.866 303.921 51.802 303.921ZM57.2025 305V297.98H58.5805V298.955C59.0615 298.279 59.8415 297.837 60.8165 297.837C62.5975 297.837 63.7025 299.007 63.7025 300.931V305H62.2855V301.035C62.2855 299.839 61.6615 299.072 60.4915 299.072C59.4255 299.072 58.6065 299.865 58.6065 301.126V305H57.2025ZM68.5524 305.143C66.7194 305.143 65.0294 303.687 65.0294 301.49C65.0294 299.28 66.6804 297.837 68.5654 297.837C69.5014 297.837 70.4244 298.266 70.9574 298.955V294.73H72.3354V305H70.9574V303.973C70.4114 304.701 69.4884 305.143 68.5524 305.143ZM68.7344 303.856C70.0604 303.856 71.0354 302.79 71.0354 301.477C71.0354 300.177 70.0604 299.111 68.7344 299.111C67.4344 299.111 66.4204 300.151 66.4204 301.477C66.4204 302.803 67.4344 303.856 68.7344 303.856ZM77.0706 305V297.98H78.4616V298.786C78.8906 298.201 79.5536 297.837 80.4506 297.837C81.5686 297.837 82.3096 298.305 82.6866 299.072C83.1286 298.331 83.9346 297.837 84.9746 297.837C86.8986 297.837 87.7956 298.994 87.7956 300.801V305H86.3526V300.879C86.3526 299.787 85.8716 299.072 84.7666 299.072C83.7656 299.072 83.1156 299.722 83.1156 301.009V305H81.6986V300.788C81.6986 299.722 81.2176 299.072 80.1516 299.072C79.1116 299.072 78.4746 299.748 78.4746 301.074V305H77.0706ZM92.7781 305.143C90.7501 305.143 89.1251 303.518 89.1251 301.49C89.1251 299.462 90.7501 297.837 92.7781 297.837C94.8061 297.837 96.4311 299.462 96.4311 301.49C96.4311 303.518 94.8061 305.143 92.7781 305.143ZM92.7781 303.83C94.0521 303.83 95.0401 302.79 95.0401 301.49C95.0401 300.19 94.0391 299.15 92.7781 299.15C91.5041 299.15 90.5291 300.19 90.5291 301.49C90.5291 302.79 91.5041 303.83 92.7781 303.83ZM97.7764 305V297.98H99.1544V299.202C99.4534 298.318 100.168 297.876 101.065 297.876C101.546 297.876 101.975 297.98 102.248 298.149L101.702 299.501C101.507 299.371 101.221 299.293 100.818 299.293C99.8174 299.293 99.1804 299.787 99.1804 301.048V305H97.7764ZM106.173 305.143C103.937 305.143 102.442 303.557 102.442 301.516C102.442 299.449 104.028 297.837 106.095 297.837C108.162 297.837 109.696 299.345 109.696 301.425V302.01H103.794C104.002 303.141 104.886 303.895 106.173 303.895C107.161 303.895 107.811 303.44 108.227 302.764L109.384 303.453C108.708 304.467 107.694 305.143 106.173 305.143ZM106.095 299.072C104.977 299.072 104.119 299.8 103.846 300.814H108.279C108.071 299.709 107.252 299.072 106.095 299.072Z" fill="#586F78"/>
</g>
<rect y="146" width="319" height="172" fill="url(#paint0_linear_10928_84910)"/>
</g>
<defs>
<filter id="filter0_d_10928_84910" x="5" y="0" width="311" height="396" filterUnits="userSpaceOnUse" color-interpolation-filters="sRGB">
<feFlood flood-opacity="0" result="BackgroundImageFix"/>
<feColorMatrix in="SourceAlpha" type="matrix" values="0 0 0 0 0 0 0 0 0 0 0 0 0 0 0 0 0 0 127 0" result="hardAlpha"/>
<feOffset dy="2"/>
<feGaussianBlur stdDeviation="4"/>
<feColorMatrix type="matrix" values="0 0 0 0 0.211765 0 0 0 0 0.258824 0 0 0 0 0.282353 0 0 0 0.15 0"/>
<feBlend mode="normal" in2="BackgroundImageFix" result="effect1_dropShadow_10928_84910"/>
<feBlend mode="normal" in="SourceGraphic" in2="effect1_dropShadow_10928_84910" result="shape"/>
</filter>
<linearGradient id="paint0_linear_10928_84910" x1="159" y1="318" x2="159" y2="146" gradientUnits="userSpaceOnUse">
<stop offset="0.275" stop-color="white"/>
<stop offset="1" stop-color="white" stop-opacity="0"/>
</linearGradient>
<clipPath id="clip0_10928_84910">
<rect width="319" height="283" fill="white"/>
</clipPath>
</defs>
</svg>
